%TF.GenerationSoftware,KiCad,Pcbnew,8.0.0*%
%TF.CreationDate,2024-02-29T12:19:13-08:00*%
%TF.ProjectId,G305_lipo_PMIC,47333035-5f6c-4697-906f-5f504d49432e,rev?*%
%TF.SameCoordinates,Original*%
%TF.FileFunction,Legend,Top*%
%TF.FilePolarity,Positive*%
%FSLAX46Y46*%
G04 Gerber Fmt 4.6, Leading zero omitted, Abs format (unit mm)*
G04 Created by KiCad (PCBNEW 8.0.0) date 2024-02-29 12:19:13*
%MOMM*%
%LPD*%
G01*
G04 APERTURE LIST*
%ADD10C,0.160000*%
%ADD11C,0.150000*%
%ADD12C,0.120000*%
G04 APERTURE END LIST*
D10*
X104600000Y-94200000D02*
X104400000Y-94400000D01*
X102400000Y-94400000D02*
X102400000Y-96000000D01*
X102400000Y-96000000D02*
X101800000Y-96600000D01*
X104400000Y-94400000D02*
X102400000Y-94400000D01*
G36*
X103464000Y-75613258D02*
G01*
X103464000Y-75469838D01*
X103026316Y-75469838D01*
X103026316Y-75777780D01*
X103168759Y-75777780D01*
X103168759Y-75632211D01*
X103208228Y-75632211D01*
X103247490Y-75639082D01*
X103283463Y-75662599D01*
X103308566Y-75699712D01*
X103321209Y-75739878D01*
X103325465Y-75785595D01*
X103320967Y-75832138D01*
X103307342Y-75872551D01*
X103284394Y-75906115D01*
X103251925Y-75932109D01*
X103209739Y-75949813D01*
X103168861Y-75957524D01*
X103133979Y-75959301D01*
X103008145Y-75959301D01*
X102962030Y-75956157D01*
X102922391Y-75946970D01*
X102881795Y-75927550D01*
X102850962Y-75899985D01*
X102829697Y-75864994D01*
X102817802Y-75823297D01*
X102814900Y-75785595D01*
X102818417Y-75746148D01*
X102831068Y-75706461D01*
X102855530Y-75669800D01*
X102888136Y-75642435D01*
X102926470Y-75623223D01*
X102845772Y-75484297D01*
X102803390Y-75508271D01*
X102766540Y-75536431D01*
X102735258Y-75568639D01*
X102709582Y-75604758D01*
X102689548Y-75644650D01*
X102675193Y-75688179D01*
X102666553Y-75735206D01*
X102663665Y-75785595D01*
X102667458Y-75843272D01*
X102678764Y-75896921D01*
X102697468Y-75946184D01*
X102723459Y-75990700D01*
X102756622Y-76030110D01*
X102796845Y-76064056D01*
X102844015Y-76092177D01*
X102898019Y-76114114D01*
X102937762Y-76125126D01*
X102980459Y-76133124D01*
X103026075Y-76138001D01*
X103074579Y-76139650D01*
X103122466Y-76138022D01*
X103167415Y-76133238D01*
X103209405Y-76125448D01*
X103248415Y-76114804D01*
X103301298Y-76093815D01*
X103347358Y-76067249D01*
X103386526Y-76035614D01*
X103418730Y-75999420D01*
X103443901Y-75959174D01*
X103461967Y-75915383D01*
X103472859Y-75868557D01*
X103476505Y-75819203D01*
X103473807Y-75777338D01*
X103463342Y-75731296D01*
X103445846Y-75692555D01*
X103416856Y-75656177D01*
X103380632Y-75631375D01*
X103338752Y-75618729D01*
X103338752Y-75613258D01*
X103464000Y-75613258D01*
G37*
G36*
X103464000Y-74851806D02*
G01*
X103464000Y-74665986D01*
X102676170Y-74665986D01*
X102676170Y-74826014D01*
X103206665Y-74826014D01*
X103206665Y-74829531D01*
X103048787Y-74904563D01*
X102676170Y-75118519D01*
X102676170Y-75304339D01*
X103464000Y-75304339D01*
X103464000Y-75144116D01*
X102933699Y-75144116D01*
X102933699Y-75140794D01*
X103091578Y-75065763D01*
X103464000Y-74851806D01*
G37*
G36*
X103117850Y-73857075D02*
G01*
X103162521Y-73861764D01*
X103204099Y-73869460D01*
X103242587Y-73880068D01*
X103294528Y-73901225D01*
X103339525Y-73928387D01*
X103377583Y-73961229D01*
X103408708Y-73999422D01*
X103432907Y-74042642D01*
X103450184Y-74090560D01*
X103460547Y-74142852D01*
X103464000Y-74199189D01*
X103464000Y-74493844D01*
X102676170Y-74493844D01*
X102676170Y-74323655D01*
X102827405Y-74323655D01*
X103312960Y-74323655D01*
X103312960Y-74199189D01*
X103312796Y-74189867D01*
X103306991Y-74146747D01*
X103288704Y-74103283D01*
X103257527Y-74069777D01*
X103221286Y-74050172D01*
X103175366Y-74038731D01*
X103131438Y-74035840D01*
X103008926Y-74035840D01*
X102986151Y-74036569D01*
X102945448Y-74042291D01*
X102903439Y-74057066D01*
X102870978Y-74079779D01*
X102844161Y-74116713D01*
X102831539Y-74154891D01*
X102827405Y-74199189D01*
X102827405Y-74323655D01*
X102676170Y-74323655D01*
X102676170Y-74199189D01*
X102679627Y-74142852D01*
X102690002Y-74090560D01*
X102707296Y-74042642D01*
X102731513Y-73999422D01*
X102762655Y-73961229D01*
X102800726Y-73928387D01*
X102845728Y-73901225D01*
X102897664Y-73880068D01*
X102936143Y-73869460D01*
X102977705Y-73861764D01*
X103022352Y-73857075D01*
X103070085Y-73855491D01*
X103117850Y-73857075D01*
G37*
G36*
X105464000Y-76142190D02*
G01*
X105312960Y-76142190D01*
X105312960Y-76440166D01*
X104676170Y-76440166D01*
X104676170Y-76610355D01*
X105464000Y-76610355D01*
X105464000Y-76142190D01*
G37*
G36*
X104814509Y-75943279D02*
G01*
X104808339Y-75899870D01*
X104785494Y-75864420D01*
X104749677Y-75848331D01*
X104732639Y-75846949D01*
X104708019Y-75846949D01*
X104668164Y-75855753D01*
X104639637Y-75883261D01*
X104627047Y-75925371D01*
X104626149Y-75943279D01*
X104632319Y-75986687D01*
X104655164Y-76022138D01*
X104690981Y-76038226D01*
X104708019Y-76039608D01*
X104732639Y-76039608D01*
X104772493Y-76030804D01*
X104801021Y-76003296D01*
X104813610Y-75961186D01*
X104814509Y-75943279D01*
G37*
G36*
X105464000Y-76026126D02*
G01*
X105464000Y-75860431D01*
X104876254Y-75860431D01*
X104876254Y-76026126D01*
X105464000Y-76026126D01*
G37*
G36*
X105188048Y-75151181D02*
G01*
X105239802Y-75154562D01*
X105286711Y-75161979D01*
X105328680Y-75173405D01*
X105365614Y-75188815D01*
X105406864Y-75215511D01*
X105438771Y-75249181D01*
X105461110Y-75289761D01*
X105473656Y-75337191D01*
X105476505Y-75377221D01*
X105473107Y-75411906D01*
X105460775Y-75450210D01*
X105436617Y-75488457D01*
X105403865Y-75517535D01*
X105364544Y-75535100D01*
X105364544Y-75540766D01*
X105689094Y-75540766D01*
X105689094Y-75706461D01*
X104876254Y-75706461D01*
X104876254Y-75540766D01*
X104975905Y-75540766D01*
X104975905Y-75535100D01*
X104941393Y-75520804D01*
X104907457Y-75493227D01*
X104882079Y-75456147D01*
X104873412Y-75432127D01*
X104998180Y-75432127D01*
X105001518Y-75465444D01*
X105015757Y-75502362D01*
X105043805Y-75530518D01*
X105082981Y-75540766D01*
X105256100Y-75540766D01*
X105284005Y-75536115D01*
X105316476Y-75513497D01*
X105336361Y-75475563D01*
X105342269Y-75432127D01*
X105341713Y-75420569D01*
X105328924Y-75379092D01*
X105300793Y-75347301D01*
X105265235Y-75329603D01*
X105220929Y-75323293D01*
X105119519Y-75323293D01*
X105112707Y-75323427D01*
X105069566Y-75331478D01*
X105031299Y-75354189D01*
X105006807Y-75388661D01*
X104998180Y-75432127D01*
X104873412Y-75432127D01*
X104868523Y-75418576D01*
X104863748Y-75377221D01*
X104868762Y-75324695D01*
X104883669Y-75278972D01*
X104908272Y-75240113D01*
X104942370Y-75208181D01*
X104985765Y-75183237D01*
X105024292Y-75169153D01*
X105067852Y-75159060D01*
X105116361Y-75152985D01*
X105169736Y-75150955D01*
X105188048Y-75151181D01*
G37*
G36*
X105204189Y-74512823D02*
G01*
X105252656Y-74519039D01*
X105297050Y-74530410D01*
X105337130Y-74546771D01*
X105372652Y-74567956D01*
X105403375Y-74593800D01*
X105429055Y-74624139D01*
X105449450Y-74658806D01*
X105464319Y-74697637D01*
X105473418Y-74740467D01*
X105476505Y-74787131D01*
X105475127Y-74818657D01*
X105468005Y-74862783D01*
X105455033Y-74902966D01*
X105436453Y-74939040D01*
X105412507Y-74970840D01*
X105383438Y-74998200D01*
X105349489Y-75020957D01*
X105310902Y-75038944D01*
X105267919Y-75051996D01*
X105220783Y-75059949D01*
X105169736Y-75062637D01*
X105135259Y-75061438D01*
X105086801Y-75055222D01*
X105042461Y-75043851D01*
X105002468Y-75027491D01*
X104967056Y-75006306D01*
X104936456Y-74980461D01*
X104910899Y-74950123D01*
X104890619Y-74915455D01*
X104875845Y-74876624D01*
X104866811Y-74833794D01*
X104863748Y-74787131D01*
X104994858Y-74787131D01*
X104994982Y-74793133D01*
X105004668Y-74835261D01*
X105029058Y-74866155D01*
X105067092Y-74884752D01*
X105110727Y-74890103D01*
X105229722Y-74890103D01*
X105236518Y-74889992D01*
X105278821Y-74883136D01*
X105315207Y-74862944D01*
X105337818Y-74830588D01*
X105345591Y-74787131D01*
X105345467Y-74781111D01*
X105335781Y-74738915D01*
X105311390Y-74708038D01*
X105273357Y-74689487D01*
X105229722Y-74684158D01*
X105110727Y-74684158D01*
X105097318Y-74684599D01*
X105056362Y-74692914D01*
X105021640Y-74714641D01*
X105000826Y-74748442D01*
X104994858Y-74787131D01*
X104863748Y-74787131D01*
X104865115Y-74755604D01*
X104872185Y-74711478D01*
X104885071Y-74671295D01*
X104903541Y-74635222D01*
X104927365Y-74603422D01*
X104956310Y-74576061D01*
X104990144Y-74553304D01*
X105028635Y-74535317D01*
X105071552Y-74522265D01*
X105118663Y-74514312D01*
X105169736Y-74511625D01*
X105204189Y-74512823D01*
G37*
G36*
X105395025Y-74063781D02*
G01*
X105188884Y-74063781D01*
X105188884Y-73874444D01*
X105056798Y-73874444D01*
X105056798Y-74063781D01*
X104850657Y-74063781D01*
X104850657Y-74207200D01*
X105056798Y-74207200D01*
X105056798Y-74396342D01*
X105188884Y-74396342D01*
X105188884Y-74207200D01*
X105395025Y-74207200D01*
X105395025Y-74063781D01*
G37*
G36*
X111464000Y-76745763D02*
G01*
X110676170Y-76491555D01*
X110676170Y-76658422D01*
X111054453Y-76774877D01*
X111301627Y-76834277D01*
X111301627Y-76837599D01*
X111054453Y-76899148D01*
X110676170Y-77015603D01*
X110676170Y-77188136D01*
X111464000Y-76936077D01*
X111464000Y-76745763D01*
G37*
G36*
X111676979Y-75976887D02*
G01*
X111539031Y-75976887D01*
X111539031Y-76532588D01*
X111676979Y-76532588D01*
X111676979Y-75976887D01*
G37*
G36*
X110676170Y-75940348D02*
G01*
X111141404Y-75940348D01*
X111183420Y-75939363D01*
X111222449Y-75936351D01*
X111275471Y-75927843D01*
X111321984Y-75914294D01*
X111362118Y-75895412D01*
X111396002Y-75870910D01*
X111423766Y-75840498D01*
X111445538Y-75803889D01*
X111461448Y-75760792D01*
X111471627Y-75710920D01*
X111476202Y-75653983D01*
X111476505Y-75633384D01*
X111475292Y-75593037D01*
X111468863Y-75538531D01*
X111456788Y-75490984D01*
X111438938Y-75450109D01*
X111415183Y-75415618D01*
X111385394Y-75387223D01*
X111349441Y-75364636D01*
X111307195Y-75347570D01*
X111258526Y-75335736D01*
X111203306Y-75328847D01*
X111162788Y-75326859D01*
X111141404Y-75326615D01*
X110676170Y-75326615D01*
X110676170Y-75492309D01*
X111159380Y-75492309D01*
X111207248Y-75495335D01*
X111246993Y-75504722D01*
X111283968Y-75525038D01*
X111309259Y-75555987D01*
X111322873Y-75598375D01*
X111325465Y-75633384D01*
X111321414Y-75676299D01*
X111305855Y-75716764D01*
X111278617Y-75745939D01*
X111239694Y-75764612D01*
X111198325Y-75772719D01*
X111159380Y-75774654D01*
X110676170Y-75774654D01*
X110676170Y-75940348D01*
G37*
G36*
X111476505Y-74905931D02*
G01*
X111473806Y-74853353D01*
X111465899Y-74805389D01*
X111453069Y-74762161D01*
X111435598Y-74723791D01*
X111413771Y-74690400D01*
X111378384Y-74653835D01*
X111336430Y-74626627D01*
X111288584Y-74609065D01*
X111249237Y-74602397D01*
X111221515Y-74601116D01*
X111173599Y-74604753D01*
X111131420Y-74615709D01*
X111094783Y-74634047D01*
X111063490Y-74659832D01*
X111037345Y-74693127D01*
X111016150Y-74733996D01*
X110999708Y-74782504D01*
X110990378Y-74823937D01*
X110987824Y-74838715D01*
X110975318Y-74915896D01*
X110965424Y-74957878D01*
X110944320Y-74992090D01*
X110905063Y-75008159D01*
X110890713Y-75008904D01*
X110851863Y-74998013D01*
X110825700Y-74965054D01*
X110815275Y-74922510D01*
X110813923Y-74895770D01*
X110817026Y-74853461D01*
X110827875Y-74811288D01*
X110845493Y-74775851D01*
X110872547Y-74742245D01*
X110888368Y-74727731D01*
X110773476Y-74614598D01*
X110742732Y-74646433D01*
X110716751Y-74682075D01*
X110695716Y-74721583D01*
X110679811Y-74765015D01*
X110669219Y-74812429D01*
X110664693Y-74853267D01*
X110663665Y-74885610D01*
X110666191Y-74935335D01*
X110673590Y-74980970D01*
X110685594Y-75022340D01*
X110701934Y-75059270D01*
X110730001Y-75101301D01*
X110764663Y-75134713D01*
X110805283Y-75159092D01*
X110851224Y-75174023D01*
X110901850Y-75179092D01*
X110949048Y-75175547D01*
X110991359Y-75164798D01*
X111028679Y-75146676D01*
X111060901Y-75121011D01*
X111087921Y-75087634D01*
X111109634Y-75046377D01*
X111125933Y-74997068D01*
X111134542Y-74954701D01*
X111136714Y-74939539D01*
X111146875Y-74862162D01*
X111156522Y-74821853D01*
X111179742Y-74787064D01*
X111216107Y-74772406D01*
X111231676Y-74771500D01*
X111270800Y-74779083D01*
X111303681Y-74805931D01*
X111321286Y-74846320D01*
X111326334Y-74886956D01*
X111326442Y-74894598D01*
X111323235Y-74936477D01*
X111313644Y-74976236D01*
X111297717Y-75013652D01*
X111275499Y-75048498D01*
X111247037Y-75080553D01*
X111236170Y-75090578D01*
X111350085Y-75202735D01*
X111383027Y-75169270D01*
X111412134Y-75131621D01*
X111436690Y-75089380D01*
X111452577Y-75052007D01*
X111464727Y-75011226D01*
X111472774Y-74966829D01*
X111476352Y-74918608D01*
X111476505Y-74905931D01*
G37*
G36*
X111285379Y-73848094D02*
G01*
X111327492Y-73859454D01*
X111365539Y-73877564D01*
X111398640Y-73901751D01*
X111425916Y-73931342D01*
X111446487Y-73965663D01*
X111459475Y-74004042D01*
X111464000Y-74045805D01*
X111464000Y-74460236D01*
X110676170Y-74460236D01*
X110676170Y-74290048D01*
X110819589Y-74290048D01*
X111000133Y-74290048D01*
X111138863Y-74290048D01*
X111320775Y-74290048D01*
X111320775Y-74094068D01*
X111314714Y-74060426D01*
X111288880Y-74030646D01*
X111249066Y-74021186D01*
X111210573Y-74021186D01*
X111176902Y-74027573D01*
X111147867Y-74054193D01*
X111138863Y-74094068D01*
X111138863Y-74290048D01*
X111000133Y-74290048D01*
X111000133Y-74120837D01*
X110993809Y-74087507D01*
X110967244Y-74058313D01*
X110927056Y-74049127D01*
X110892667Y-74049127D01*
X110858647Y-74055321D01*
X110828921Y-74081369D01*
X110819589Y-74120837D01*
X110819589Y-74290048D01*
X110676170Y-74290048D01*
X110676170Y-74080585D01*
X110676402Y-74068665D01*
X110681866Y-74024090D01*
X110694253Y-73984713D01*
X110718805Y-73943266D01*
X110752631Y-73911012D01*
X110794872Y-73888546D01*
X110834146Y-73878021D01*
X110877817Y-73874444D01*
X110910203Y-73876142D01*
X110955574Y-73886006D01*
X110996842Y-73907966D01*
X111025082Y-73939007D01*
X111041725Y-73977048D01*
X111048200Y-74020013D01*
X111055039Y-74020013D01*
X111056368Y-73998606D01*
X111067554Y-73953913D01*
X111086439Y-73917814D01*
X111114928Y-73885933D01*
X111153875Y-73861249D01*
X111193138Y-73848685D01*
X111240078Y-73844158D01*
X111285379Y-73848094D01*
G37*
G36*
X101395025Y-76481199D02*
G01*
X101188884Y-76481199D01*
X101188884Y-76291862D01*
X101056798Y-76291862D01*
X101056798Y-76481199D01*
X100850657Y-76481199D01*
X100850657Y-76624618D01*
X101056798Y-76624618D01*
X101056798Y-76813760D01*
X101188884Y-76813760D01*
X101188884Y-76624618D01*
X101395025Y-76624618D01*
X101395025Y-76481199D01*
G37*
G36*
X101464000Y-75567926D02*
G01*
X101328591Y-75567926D01*
X101328591Y-75733621D01*
X100676170Y-75733621D01*
X100676170Y-75991346D01*
X100924907Y-76178338D01*
X101009708Y-76070871D01*
X100799464Y-75911820D01*
X100799464Y-75901660D01*
X101328591Y-75901660D01*
X101328591Y-76112295D01*
X101464000Y-76112295D01*
X101464000Y-75567926D01*
G37*
G36*
X101476505Y-75372532D02*
G01*
X101471317Y-75333534D01*
X101451103Y-75298087D01*
X101414428Y-75277381D01*
X101387014Y-75274053D01*
X101364544Y-75274053D01*
X101324890Y-75281576D01*
X101292254Y-75308099D01*
X101276791Y-75349002D01*
X101275053Y-75372532D01*
X101280263Y-75411530D01*
X101300528Y-75446977D01*
X101337203Y-75467682D01*
X101364544Y-75471011D01*
X101387014Y-75471011D01*
X101426753Y-75463487D01*
X101459361Y-75436965D01*
X101474775Y-75396062D01*
X101476505Y-75372532D01*
G37*
G36*
X100676170Y-74614402D02*
G01*
X100676170Y-75092727D01*
X101123818Y-75121841D01*
X101142967Y-74984088D01*
X101115204Y-74952894D01*
X101096033Y-74913891D01*
X101088418Y-74874226D01*
X101088061Y-74863139D01*
X101094298Y-74819523D01*
X101115725Y-74780906D01*
X101150805Y-74755760D01*
X101191391Y-74746032D01*
X101204516Y-74745512D01*
X101213504Y-74745512D01*
X101253396Y-74749866D01*
X101291802Y-74765877D01*
X101319965Y-74793530D01*
X101336327Y-74832691D01*
X101339924Y-74867633D01*
X101334982Y-74909217D01*
X101318100Y-74949339D01*
X101291524Y-74982015D01*
X101257649Y-75008912D01*
X101230308Y-75025512D01*
X101326442Y-75147633D01*
X101362826Y-75122957D01*
X101396485Y-75092513D01*
X101426010Y-75055456D01*
X101445707Y-75020480D01*
X101461135Y-74980297D01*
X101471573Y-74934476D01*
X101476300Y-74882583D01*
X101476505Y-74868610D01*
X101473471Y-74816689D01*
X101464619Y-74769371D01*
X101450324Y-74726766D01*
X101430961Y-74688984D01*
X101406904Y-74656135D01*
X101378529Y-74628329D01*
X101346210Y-74605676D01*
X101310322Y-74588286D01*
X101271239Y-74576271D01*
X101229338Y-74569738D01*
X101200022Y-74568484D01*
X101157676Y-74571251D01*
X101118876Y-74579282D01*
X101072892Y-74597482D01*
X101033774Y-74623371D01*
X101001840Y-74655992D01*
X100977412Y-74694392D01*
X100960811Y-74737616D01*
X100952357Y-74784707D01*
X100951285Y-74809406D01*
X100954875Y-74851741D01*
X100968068Y-74892254D01*
X100994372Y-74928185D01*
X101030827Y-74955322D01*
X101068879Y-74974300D01*
X101075751Y-74977249D01*
X101075751Y-74986237D01*
X100822911Y-74969434D01*
X100822911Y-74614402D01*
X100676170Y-74614402D01*
G37*
G36*
X101464000Y-74069643D02*
G01*
X100676170Y-73815435D01*
X100676170Y-73982302D01*
X101054453Y-74098757D01*
X101301627Y-74158156D01*
X101301627Y-74161478D01*
X101054453Y-74223027D01*
X100676170Y-74339482D01*
X100676170Y-74512016D01*
X101464000Y-74259957D01*
X101464000Y-74069643D01*
G37*
G36*
X109464000Y-75613258D02*
G01*
X109464000Y-75469838D01*
X109026316Y-75469838D01*
X109026316Y-75777780D01*
X109168759Y-75777780D01*
X109168759Y-75632211D01*
X109208228Y-75632211D01*
X109247490Y-75639082D01*
X109283463Y-75662599D01*
X109308566Y-75699712D01*
X109321209Y-75739878D01*
X109325465Y-75785595D01*
X109320967Y-75832138D01*
X109307342Y-75872551D01*
X109284394Y-75906115D01*
X109251925Y-75932109D01*
X109209739Y-75949813D01*
X109168861Y-75957524D01*
X109133979Y-75959301D01*
X109008145Y-75959301D01*
X108962030Y-75956157D01*
X108922391Y-75946970D01*
X108881795Y-75927550D01*
X108850962Y-75899985D01*
X108829697Y-75864994D01*
X108817802Y-75823297D01*
X108814900Y-75785595D01*
X108818417Y-75746148D01*
X108831068Y-75706461D01*
X108855530Y-75669800D01*
X108888136Y-75642435D01*
X108926470Y-75623223D01*
X108845772Y-75484297D01*
X108803390Y-75508271D01*
X108766540Y-75536431D01*
X108735258Y-75568639D01*
X108709582Y-75604758D01*
X108689548Y-75644650D01*
X108675193Y-75688179D01*
X108666553Y-75735206D01*
X108663665Y-75785595D01*
X108667458Y-75843272D01*
X108678764Y-75896921D01*
X108697468Y-75946184D01*
X108723459Y-75990700D01*
X108756622Y-76030110D01*
X108796845Y-76064056D01*
X108844015Y-76092177D01*
X108898019Y-76114114D01*
X108937762Y-76125126D01*
X108980459Y-76133124D01*
X109026075Y-76138001D01*
X109074579Y-76139650D01*
X109122466Y-76138022D01*
X109167415Y-76133238D01*
X109209405Y-76125448D01*
X109248415Y-76114804D01*
X109301298Y-76093815D01*
X109347358Y-76067249D01*
X109386526Y-76035614D01*
X109418730Y-75999420D01*
X109443901Y-75959174D01*
X109461967Y-75915383D01*
X109472859Y-75868557D01*
X109476505Y-75819203D01*
X109473807Y-75777338D01*
X109463342Y-75731296D01*
X109445846Y-75692555D01*
X109416856Y-75656177D01*
X109380632Y-75631375D01*
X109338752Y-75618729D01*
X109338752Y-75613258D01*
X109464000Y-75613258D01*
G37*
G36*
X109464000Y-74851806D02*
G01*
X109464000Y-74665986D01*
X108676170Y-74665986D01*
X108676170Y-74826014D01*
X109206665Y-74826014D01*
X109206665Y-74829531D01*
X109048787Y-74904563D01*
X108676170Y-75118519D01*
X108676170Y-75304339D01*
X109464000Y-75304339D01*
X109464000Y-75144116D01*
X108933699Y-75144116D01*
X108933699Y-75140794D01*
X109091578Y-75065763D01*
X109464000Y-74851806D01*
G37*
G36*
X109117850Y-73857075D02*
G01*
X109162521Y-73861764D01*
X109204099Y-73869460D01*
X109242587Y-73880068D01*
X109294528Y-73901225D01*
X109339525Y-73928387D01*
X109377583Y-73961229D01*
X109408708Y-73999422D01*
X109432907Y-74042642D01*
X109450184Y-74090560D01*
X109460547Y-74142852D01*
X109464000Y-74199189D01*
X109464000Y-74493844D01*
X108676170Y-74493844D01*
X108676170Y-74323655D01*
X108827405Y-74323655D01*
X109312960Y-74323655D01*
X109312960Y-74199189D01*
X109312796Y-74189867D01*
X109306991Y-74146747D01*
X109288704Y-74103283D01*
X109257527Y-74069777D01*
X109221286Y-74050172D01*
X109175366Y-74038731D01*
X109131438Y-74035840D01*
X109008926Y-74035840D01*
X108986151Y-74036569D01*
X108945448Y-74042291D01*
X108903439Y-74057066D01*
X108870978Y-74079779D01*
X108844161Y-74116713D01*
X108831539Y-74154891D01*
X108827405Y-74199189D01*
X108827405Y-74323655D01*
X108676170Y-74323655D01*
X108676170Y-74199189D01*
X108679627Y-74142852D01*
X108690002Y-74090560D01*
X108707296Y-74042642D01*
X108731513Y-73999422D01*
X108762655Y-73961229D01*
X108800726Y-73928387D01*
X108845728Y-73901225D01*
X108897664Y-73880068D01*
X108936143Y-73869460D01*
X108977705Y-73861764D01*
X109022352Y-73857075D01*
X109070085Y-73855491D01*
X109117850Y-73857075D01*
G37*
G36*
X107464000Y-75613258D02*
G01*
X107464000Y-75469838D01*
X107026316Y-75469838D01*
X107026316Y-75777780D01*
X107168759Y-75777780D01*
X107168759Y-75632211D01*
X107208228Y-75632211D01*
X107247490Y-75639082D01*
X107283463Y-75662599D01*
X107308566Y-75699712D01*
X107321209Y-75739878D01*
X107325465Y-75785595D01*
X107320967Y-75832138D01*
X107307342Y-75872551D01*
X107284394Y-75906115D01*
X107251925Y-75932109D01*
X107209739Y-75949813D01*
X107168861Y-75957524D01*
X107133979Y-75959301D01*
X107008145Y-75959301D01*
X106962030Y-75956157D01*
X106922391Y-75946970D01*
X106881795Y-75927550D01*
X106850962Y-75899985D01*
X106829697Y-75864994D01*
X106817802Y-75823297D01*
X106814900Y-75785595D01*
X106818417Y-75746148D01*
X106831068Y-75706461D01*
X106855530Y-75669800D01*
X106888136Y-75642435D01*
X106926470Y-75623223D01*
X106845772Y-75484297D01*
X106803390Y-75508271D01*
X106766540Y-75536431D01*
X106735258Y-75568639D01*
X106709582Y-75604758D01*
X106689548Y-75644650D01*
X106675193Y-75688179D01*
X106666553Y-75735206D01*
X106663665Y-75785595D01*
X106667458Y-75843272D01*
X106678764Y-75896921D01*
X106697468Y-75946184D01*
X106723459Y-75990700D01*
X106756622Y-76030110D01*
X106796845Y-76064056D01*
X106844015Y-76092177D01*
X106898019Y-76114114D01*
X106937762Y-76125126D01*
X106980459Y-76133124D01*
X107026075Y-76138001D01*
X107074579Y-76139650D01*
X107122466Y-76138022D01*
X107167415Y-76133238D01*
X107209405Y-76125448D01*
X107248415Y-76114804D01*
X107301298Y-76093815D01*
X107347358Y-76067249D01*
X107386526Y-76035614D01*
X107418730Y-75999420D01*
X107443901Y-75959174D01*
X107461967Y-75915383D01*
X107472859Y-75868557D01*
X107476505Y-75819203D01*
X107473807Y-75777338D01*
X107463342Y-75731296D01*
X107445846Y-75692555D01*
X107416856Y-75656177D01*
X107380632Y-75631375D01*
X107338752Y-75618729D01*
X107338752Y-75613258D01*
X107464000Y-75613258D01*
G37*
G36*
X107464000Y-74851806D02*
G01*
X107464000Y-74665986D01*
X106676170Y-74665986D01*
X106676170Y-74826014D01*
X107206665Y-74826014D01*
X107206665Y-74829531D01*
X107048787Y-74904563D01*
X106676170Y-75118519D01*
X106676170Y-75304339D01*
X107464000Y-75304339D01*
X107464000Y-75144116D01*
X106933699Y-75144116D01*
X106933699Y-75140794D01*
X107091578Y-75065763D01*
X107464000Y-74851806D01*
G37*
G36*
X107117850Y-73857075D02*
G01*
X107162521Y-73861764D01*
X107204099Y-73869460D01*
X107242587Y-73880068D01*
X107294528Y-73901225D01*
X107339525Y-73928387D01*
X107377583Y-73961229D01*
X107408708Y-73999422D01*
X107432907Y-74042642D01*
X107450184Y-74090560D01*
X107460547Y-74142852D01*
X107464000Y-74199189D01*
X107464000Y-74493844D01*
X106676170Y-74493844D01*
X106676170Y-74323655D01*
X106827405Y-74323655D01*
X107312960Y-74323655D01*
X107312960Y-74199189D01*
X107312796Y-74189867D01*
X107306991Y-74146747D01*
X107288704Y-74103283D01*
X107257527Y-74069777D01*
X107221286Y-74050172D01*
X107175366Y-74038731D01*
X107131438Y-74035840D01*
X107008926Y-74035840D01*
X106986151Y-74036569D01*
X106945448Y-74042291D01*
X106903439Y-74057066D01*
X106870978Y-74079779D01*
X106844161Y-74116713D01*
X106831539Y-74154891D01*
X106827405Y-74199189D01*
X106827405Y-74323655D01*
X106676170Y-74323655D01*
X106676170Y-74199189D01*
X106679627Y-74142852D01*
X106690002Y-74090560D01*
X106707296Y-74042642D01*
X106731513Y-73999422D01*
X106762655Y-73961229D01*
X106800726Y-73928387D01*
X106845728Y-73901225D01*
X106897664Y-73880068D01*
X106936143Y-73869460D01*
X106977705Y-73861764D01*
X107022352Y-73857075D01*
X107070085Y-73855491D01*
X107117850Y-73857075D01*
G37*
D11*
X110559580Y-88166666D02*
X110607200Y-88214285D01*
X110607200Y-88214285D02*
X110654819Y-88357142D01*
X110654819Y-88357142D02*
X110654819Y-88452380D01*
X110654819Y-88452380D02*
X110607200Y-88595237D01*
X110607200Y-88595237D02*
X110511961Y-88690475D01*
X110511961Y-88690475D02*
X110416723Y-88738094D01*
X110416723Y-88738094D02*
X110226247Y-88785713D01*
X110226247Y-88785713D02*
X110083390Y-88785713D01*
X110083390Y-88785713D02*
X109892914Y-88738094D01*
X109892914Y-88738094D02*
X109797676Y-88690475D01*
X109797676Y-88690475D02*
X109702438Y-88595237D01*
X109702438Y-88595237D02*
X109654819Y-88452380D01*
X109654819Y-88452380D02*
X109654819Y-88357142D01*
X109654819Y-88357142D02*
X109702438Y-88214285D01*
X109702438Y-88214285D02*
X109750057Y-88166666D01*
X109988152Y-87309523D02*
X110654819Y-87309523D01*
X109607200Y-87547618D02*
X110321485Y-87785713D01*
X110321485Y-87785713D02*
X110321485Y-87166666D01*
X101454819Y-78766666D02*
X100978628Y-79099999D01*
X101454819Y-79338094D02*
X100454819Y-79338094D01*
X100454819Y-79338094D02*
X100454819Y-78957142D01*
X100454819Y-78957142D02*
X100502438Y-78861904D01*
X100502438Y-78861904D02*
X100550057Y-78814285D01*
X100550057Y-78814285D02*
X100645295Y-78766666D01*
X100645295Y-78766666D02*
X100788152Y-78766666D01*
X100788152Y-78766666D02*
X100883390Y-78814285D01*
X100883390Y-78814285D02*
X100931009Y-78861904D01*
X100931009Y-78861904D02*
X100978628Y-78957142D01*
X100978628Y-78957142D02*
X100978628Y-79338094D01*
X100550057Y-78385713D02*
X100502438Y-78338094D01*
X100502438Y-78338094D02*
X100454819Y-78242856D01*
X100454819Y-78242856D02*
X100454819Y-78004761D01*
X100454819Y-78004761D02*
X100502438Y-77909523D01*
X100502438Y-77909523D02*
X100550057Y-77861904D01*
X100550057Y-77861904D02*
X100645295Y-77814285D01*
X100645295Y-77814285D02*
X100740533Y-77814285D01*
X100740533Y-77814285D02*
X100883390Y-77861904D01*
X100883390Y-77861904D02*
X101454819Y-78433332D01*
X101454819Y-78433332D02*
X101454819Y-77814285D01*
X105054819Y-86566666D02*
X104578628Y-86899999D01*
X105054819Y-87138094D02*
X104054819Y-87138094D01*
X104054819Y-87138094D02*
X104054819Y-86757142D01*
X104054819Y-86757142D02*
X104102438Y-86661904D01*
X104102438Y-86661904D02*
X104150057Y-86614285D01*
X104150057Y-86614285D02*
X104245295Y-86566666D01*
X104245295Y-86566666D02*
X104388152Y-86566666D01*
X104388152Y-86566666D02*
X104483390Y-86614285D01*
X104483390Y-86614285D02*
X104531009Y-86661904D01*
X104531009Y-86661904D02*
X104578628Y-86757142D01*
X104578628Y-86757142D02*
X104578628Y-87138094D01*
X104388152Y-85709523D02*
X105054819Y-85709523D01*
X104007200Y-85947618D02*
X104721485Y-86185713D01*
X104721485Y-86185713D02*
X104721485Y-85566666D01*
X101159580Y-85566666D02*
X101207200Y-85614285D01*
X101207200Y-85614285D02*
X101254819Y-85757142D01*
X101254819Y-85757142D02*
X101254819Y-85852380D01*
X101254819Y-85852380D02*
X101207200Y-85995237D01*
X101207200Y-85995237D02*
X101111961Y-86090475D01*
X101111961Y-86090475D02*
X101016723Y-86138094D01*
X101016723Y-86138094D02*
X100826247Y-86185713D01*
X100826247Y-86185713D02*
X100683390Y-86185713D01*
X100683390Y-86185713D02*
X100492914Y-86138094D01*
X100492914Y-86138094D02*
X100397676Y-86090475D01*
X100397676Y-86090475D02*
X100302438Y-85995237D01*
X100302438Y-85995237D02*
X100254819Y-85852380D01*
X100254819Y-85852380D02*
X100254819Y-85757142D01*
X100254819Y-85757142D02*
X100302438Y-85614285D01*
X100302438Y-85614285D02*
X100350057Y-85566666D01*
X100350057Y-85185713D02*
X100302438Y-85138094D01*
X100302438Y-85138094D02*
X100254819Y-85042856D01*
X100254819Y-85042856D02*
X100254819Y-84804761D01*
X100254819Y-84804761D02*
X100302438Y-84709523D01*
X100302438Y-84709523D02*
X100350057Y-84661904D01*
X100350057Y-84661904D02*
X100445295Y-84614285D01*
X100445295Y-84614285D02*
X100540533Y-84614285D01*
X100540533Y-84614285D02*
X100683390Y-84661904D01*
X100683390Y-84661904D02*
X101254819Y-85233332D01*
X101254819Y-85233332D02*
X101254819Y-84614285D01*
X110654819Y-85966666D02*
X110178628Y-86299999D01*
X110654819Y-86538094D02*
X109654819Y-86538094D01*
X109654819Y-86538094D02*
X109654819Y-86157142D01*
X109654819Y-86157142D02*
X109702438Y-86061904D01*
X109702438Y-86061904D02*
X109750057Y-86014285D01*
X109750057Y-86014285D02*
X109845295Y-85966666D01*
X109845295Y-85966666D02*
X109988152Y-85966666D01*
X109988152Y-85966666D02*
X110083390Y-86014285D01*
X110083390Y-86014285D02*
X110131009Y-86061904D01*
X110131009Y-86061904D02*
X110178628Y-86157142D01*
X110178628Y-86157142D02*
X110178628Y-86538094D01*
X109654819Y-85633332D02*
X109654819Y-85014285D01*
X109654819Y-85014285D02*
X110035771Y-85347618D01*
X110035771Y-85347618D02*
X110035771Y-85204761D01*
X110035771Y-85204761D02*
X110083390Y-85109523D01*
X110083390Y-85109523D02*
X110131009Y-85061904D01*
X110131009Y-85061904D02*
X110226247Y-85014285D01*
X110226247Y-85014285D02*
X110464342Y-85014285D01*
X110464342Y-85014285D02*
X110559580Y-85061904D01*
X110559580Y-85061904D02*
X110607200Y-85109523D01*
X110607200Y-85109523D02*
X110654819Y-85204761D01*
X110654819Y-85204761D02*
X110654819Y-85490475D01*
X110654819Y-85490475D02*
X110607200Y-85585713D01*
X110607200Y-85585713D02*
X110559580Y-85633332D01*
X103654819Y-85161904D02*
X104464342Y-85161904D01*
X104464342Y-85161904D02*
X104559580Y-85114285D01*
X104559580Y-85114285D02*
X104607200Y-85066666D01*
X104607200Y-85066666D02*
X104654819Y-84971428D01*
X104654819Y-84971428D02*
X104654819Y-84780952D01*
X104654819Y-84780952D02*
X104607200Y-84685714D01*
X104607200Y-84685714D02*
X104559580Y-84638095D01*
X104559580Y-84638095D02*
X104464342Y-84590476D01*
X104464342Y-84590476D02*
X103654819Y-84590476D01*
X104654819Y-83590476D02*
X104654819Y-84161904D01*
X104654819Y-83876190D02*
X103654819Y-83876190D01*
X103654819Y-83876190D02*
X103797676Y-83971428D01*
X103797676Y-83971428D02*
X103892914Y-84066666D01*
X103892914Y-84066666D02*
X103940533Y-84161904D01*
X111559580Y-82166666D02*
X111607200Y-82214285D01*
X111607200Y-82214285D02*
X111654819Y-82357142D01*
X111654819Y-82357142D02*
X111654819Y-82452380D01*
X111654819Y-82452380D02*
X111607200Y-82595237D01*
X111607200Y-82595237D02*
X111511961Y-82690475D01*
X111511961Y-82690475D02*
X111416723Y-82738094D01*
X111416723Y-82738094D02*
X111226247Y-82785713D01*
X111226247Y-82785713D02*
X111083390Y-82785713D01*
X111083390Y-82785713D02*
X110892914Y-82738094D01*
X110892914Y-82738094D02*
X110797676Y-82690475D01*
X110797676Y-82690475D02*
X110702438Y-82595237D01*
X110702438Y-82595237D02*
X110654819Y-82452380D01*
X110654819Y-82452380D02*
X110654819Y-82357142D01*
X110654819Y-82357142D02*
X110702438Y-82214285D01*
X110702438Y-82214285D02*
X110750057Y-82166666D01*
X111654819Y-81214285D02*
X111654819Y-81785713D01*
X111654819Y-81499999D02*
X110654819Y-81499999D01*
X110654819Y-81499999D02*
X110797676Y-81595237D01*
X110797676Y-81595237D02*
X110892914Y-81690475D01*
X110892914Y-81690475D02*
X110940533Y-81785713D01*
X109654819Y-92561904D02*
X110464342Y-92561904D01*
X110464342Y-92561904D02*
X110559580Y-92514285D01*
X110559580Y-92514285D02*
X110607200Y-92466666D01*
X110607200Y-92466666D02*
X110654819Y-92371428D01*
X110654819Y-92371428D02*
X110654819Y-92180952D01*
X110654819Y-92180952D02*
X110607200Y-92085714D01*
X110607200Y-92085714D02*
X110559580Y-92038095D01*
X110559580Y-92038095D02*
X110464342Y-91990476D01*
X110464342Y-91990476D02*
X109654819Y-91990476D01*
X109750057Y-91561904D02*
X109702438Y-91514285D01*
X109702438Y-91514285D02*
X109654819Y-91419047D01*
X109654819Y-91419047D02*
X109654819Y-91180952D01*
X109654819Y-91180952D02*
X109702438Y-91085714D01*
X109702438Y-91085714D02*
X109750057Y-91038095D01*
X109750057Y-91038095D02*
X109845295Y-90990476D01*
X109845295Y-90990476D02*
X109940533Y-90990476D01*
X109940533Y-90990476D02*
X110083390Y-91038095D01*
X110083390Y-91038095D02*
X110654819Y-91609523D01*
X110654819Y-91609523D02*
X110654819Y-90990476D01*
X110454819Y-78766666D02*
X109978628Y-79099999D01*
X110454819Y-79338094D02*
X109454819Y-79338094D01*
X109454819Y-79338094D02*
X109454819Y-78957142D01*
X109454819Y-78957142D02*
X109502438Y-78861904D01*
X109502438Y-78861904D02*
X109550057Y-78814285D01*
X109550057Y-78814285D02*
X109645295Y-78766666D01*
X109645295Y-78766666D02*
X109788152Y-78766666D01*
X109788152Y-78766666D02*
X109883390Y-78814285D01*
X109883390Y-78814285D02*
X109931009Y-78861904D01*
X109931009Y-78861904D02*
X109978628Y-78957142D01*
X109978628Y-78957142D02*
X109978628Y-79338094D01*
X110454819Y-77814285D02*
X110454819Y-78385713D01*
X110454819Y-78099999D02*
X109454819Y-78099999D01*
X109454819Y-78099999D02*
X109597676Y-78195237D01*
X109597676Y-78195237D02*
X109692914Y-78290475D01*
X109692914Y-78290475D02*
X109740533Y-78385713D01*
X102159580Y-97766666D02*
X102207200Y-97814285D01*
X102207200Y-97814285D02*
X102254819Y-97957142D01*
X102254819Y-97957142D02*
X102254819Y-98052380D01*
X102254819Y-98052380D02*
X102207200Y-98195237D01*
X102207200Y-98195237D02*
X102111961Y-98290475D01*
X102111961Y-98290475D02*
X102016723Y-98338094D01*
X102016723Y-98338094D02*
X101826247Y-98385713D01*
X101826247Y-98385713D02*
X101683390Y-98385713D01*
X101683390Y-98385713D02*
X101492914Y-98338094D01*
X101492914Y-98338094D02*
X101397676Y-98290475D01*
X101397676Y-98290475D02*
X101302438Y-98195237D01*
X101302438Y-98195237D02*
X101254819Y-98052380D01*
X101254819Y-98052380D02*
X101254819Y-97957142D01*
X101254819Y-97957142D02*
X101302438Y-97814285D01*
X101302438Y-97814285D02*
X101350057Y-97766666D01*
X101254819Y-97433332D02*
X101254819Y-96814285D01*
X101254819Y-96814285D02*
X101635771Y-97147618D01*
X101635771Y-97147618D02*
X101635771Y-97004761D01*
X101635771Y-97004761D02*
X101683390Y-96909523D01*
X101683390Y-96909523D02*
X101731009Y-96861904D01*
X101731009Y-96861904D02*
X101826247Y-96814285D01*
X101826247Y-96814285D02*
X102064342Y-96814285D01*
X102064342Y-96814285D02*
X102159580Y-96861904D01*
X102159580Y-96861904D02*
X102207200Y-96909523D01*
X102207200Y-96909523D02*
X102254819Y-97004761D01*
X102254819Y-97004761D02*
X102254819Y-97290475D01*
X102254819Y-97290475D02*
X102207200Y-97385713D01*
X102207200Y-97385713D02*
X102159580Y-97433332D01*
X101159580Y-92566666D02*
X101207200Y-92614285D01*
X101207200Y-92614285D02*
X101254819Y-92757142D01*
X101254819Y-92757142D02*
X101254819Y-92852380D01*
X101254819Y-92852380D02*
X101207200Y-92995237D01*
X101207200Y-92995237D02*
X101111961Y-93090475D01*
X101111961Y-93090475D02*
X101016723Y-93138094D01*
X101016723Y-93138094D02*
X100826247Y-93185713D01*
X100826247Y-93185713D02*
X100683390Y-93185713D01*
X100683390Y-93185713D02*
X100492914Y-93138094D01*
X100492914Y-93138094D02*
X100397676Y-93090475D01*
X100397676Y-93090475D02*
X100302438Y-92995237D01*
X100302438Y-92995237D02*
X100254819Y-92852380D01*
X100254819Y-92852380D02*
X100254819Y-92757142D01*
X100254819Y-92757142D02*
X100302438Y-92614285D01*
X100302438Y-92614285D02*
X100350057Y-92566666D01*
X100254819Y-91709523D02*
X100254819Y-91899999D01*
X100254819Y-91899999D02*
X100302438Y-91995237D01*
X100302438Y-91995237D02*
X100350057Y-92042856D01*
X100350057Y-92042856D02*
X100492914Y-92138094D01*
X100492914Y-92138094D02*
X100683390Y-92185713D01*
X100683390Y-92185713D02*
X101064342Y-92185713D01*
X101064342Y-92185713D02*
X101159580Y-92138094D01*
X101159580Y-92138094D02*
X101207200Y-92090475D01*
X101207200Y-92090475D02*
X101254819Y-91995237D01*
X101254819Y-91995237D02*
X101254819Y-91804761D01*
X101254819Y-91804761D02*
X101207200Y-91709523D01*
X101207200Y-91709523D02*
X101159580Y-91661904D01*
X101159580Y-91661904D02*
X101064342Y-91614285D01*
X101064342Y-91614285D02*
X100826247Y-91614285D01*
X100826247Y-91614285D02*
X100731009Y-91661904D01*
X100731009Y-91661904D02*
X100683390Y-91709523D01*
X100683390Y-91709523D02*
X100635771Y-91804761D01*
X100635771Y-91804761D02*
X100635771Y-91995237D01*
X100635771Y-91995237D02*
X100683390Y-92090475D01*
X100683390Y-92090475D02*
X100731009Y-92138094D01*
X100731009Y-92138094D02*
X100826247Y-92185713D01*
X110254819Y-95566666D02*
X110254819Y-96042856D01*
X110254819Y-96042856D02*
X109254819Y-96042856D01*
X110254819Y-94709523D02*
X110254819Y-95280951D01*
X110254819Y-94995237D02*
X109254819Y-94995237D01*
X109254819Y-94995237D02*
X109397676Y-95090475D01*
X109397676Y-95090475D02*
X109492914Y-95185713D01*
X109492914Y-95185713D02*
X109540533Y-95280951D01*
X102854819Y-79338094D02*
X101854819Y-79338094D01*
X101854819Y-79338094D02*
X101854819Y-79099999D01*
X101854819Y-79099999D02*
X101902438Y-78957142D01*
X101902438Y-78957142D02*
X101997676Y-78861904D01*
X101997676Y-78861904D02*
X102092914Y-78814285D01*
X102092914Y-78814285D02*
X102283390Y-78766666D01*
X102283390Y-78766666D02*
X102426247Y-78766666D01*
X102426247Y-78766666D02*
X102616723Y-78814285D01*
X102616723Y-78814285D02*
X102711961Y-78861904D01*
X102711961Y-78861904D02*
X102807200Y-78957142D01*
X102807200Y-78957142D02*
X102854819Y-79099999D01*
X102854819Y-79099999D02*
X102854819Y-79338094D01*
X102854819Y-77814285D02*
X102854819Y-78385713D01*
X102854819Y-78099999D02*
X101854819Y-78099999D01*
X101854819Y-78099999D02*
X101997676Y-78195237D01*
X101997676Y-78195237D02*
X102092914Y-78290475D01*
X102092914Y-78290475D02*
X102140533Y-78385713D01*
X101454819Y-88966666D02*
X100978628Y-89299999D01*
X101454819Y-89538094D02*
X100454819Y-89538094D01*
X100454819Y-89538094D02*
X100454819Y-89157142D01*
X100454819Y-89157142D02*
X100502438Y-89061904D01*
X100502438Y-89061904D02*
X100550057Y-89014285D01*
X100550057Y-89014285D02*
X100645295Y-88966666D01*
X100645295Y-88966666D02*
X100788152Y-88966666D01*
X100788152Y-88966666D02*
X100883390Y-89014285D01*
X100883390Y-89014285D02*
X100931009Y-89061904D01*
X100931009Y-89061904D02*
X100978628Y-89157142D01*
X100978628Y-89157142D02*
X100978628Y-89538094D01*
X100454819Y-88061904D02*
X100454819Y-88538094D01*
X100454819Y-88538094D02*
X100931009Y-88585713D01*
X100931009Y-88585713D02*
X100883390Y-88538094D01*
X100883390Y-88538094D02*
X100835771Y-88442856D01*
X100835771Y-88442856D02*
X100835771Y-88204761D01*
X100835771Y-88204761D02*
X100883390Y-88109523D01*
X100883390Y-88109523D02*
X100931009Y-88061904D01*
X100931009Y-88061904D02*
X101026247Y-88014285D01*
X101026247Y-88014285D02*
X101264342Y-88014285D01*
X101264342Y-88014285D02*
X101359580Y-88061904D01*
X101359580Y-88061904D02*
X101407200Y-88109523D01*
X101407200Y-88109523D02*
X101454819Y-88204761D01*
X101454819Y-88204761D02*
X101454819Y-88442856D01*
X101454819Y-88442856D02*
X101407200Y-88538094D01*
X101407200Y-88538094D02*
X101359580Y-88585713D01*
D12*
%TO.C,TP1*%
X103100000Y-82600000D02*
G75*
G02*
X101700000Y-82600000I-700000J0D01*
G01*
X101700000Y-82600000D02*
G75*
G02*
X103100000Y-82600000I700000J0D01*
G01*
%TO.C,C4*%
X107861252Y-87265000D02*
X107338748Y-87265000D01*
X107861252Y-88735000D02*
X107338748Y-88735000D01*
%TO.C,R2*%
X103277500Y-78362742D02*
X103277500Y-78837258D01*
X104322500Y-78362742D02*
X104322500Y-78837258D01*
%TO.C,R4*%
X104077500Y-89037259D02*
X104077500Y-88562743D01*
X105122500Y-89037259D02*
X105122500Y-88562743D01*
%TO.C,C2*%
X101665000Y-85138748D02*
X101665000Y-85661252D01*
X103135000Y-85138748D02*
X103135000Y-85661252D01*
%TO.C,R3*%
X107362742Y-85277500D02*
X107837258Y-85277500D01*
X107362742Y-86322500D02*
X107837258Y-86322500D01*
%TO.C,U1*%
X106200000Y-80440000D02*
X104400000Y-80440000D01*
X106200000Y-80440000D02*
X107000000Y-80440000D01*
X106200000Y-83560000D02*
X105400000Y-83560000D01*
X106200000Y-83560000D02*
X107000000Y-83560000D01*
%TO.C,C1*%
X108865000Y-82261252D02*
X108865000Y-81738748D01*
X110335000Y-82261252D02*
X110335000Y-81738748D01*
%TO.C,U2*%
X106040000Y-91800000D02*
X106040000Y-91000000D01*
X106040000Y-91800000D02*
X106040000Y-92600000D01*
X109160000Y-91800000D02*
X109160000Y-90000000D01*
X109160000Y-91800000D02*
X109160000Y-92600000D01*
%TO.C,TP2*%
X101900000Y-95200000D02*
G75*
G02*
X100500000Y-95200000I-700000J0D01*
G01*
X100500000Y-95200000D02*
G75*
G02*
X101900000Y-95200000I700000J0D01*
G01*
%TO.C,R1*%
X108077500Y-78837258D02*
X108077500Y-78362742D01*
X109122500Y-78837258D02*
X109122500Y-78362742D01*
%TO.C,C3*%
X103865000Y-92661252D02*
X103865000Y-92138748D01*
X105335000Y-92661252D02*
X105335000Y-92138748D01*
%TO.C,C6*%
X101665000Y-92661252D02*
X101665000Y-92138748D01*
X103135000Y-92661252D02*
X103135000Y-92138748D01*
%TO.C,L1*%
X108800000Y-94900000D02*
X102800000Y-94900000D01*
X108800000Y-99100000D02*
X102800000Y-99100000D01*
%TO.C,TP3*%
X111300000Y-98400000D02*
G75*
G02*
X109900000Y-98400000I-700000J0D01*
G01*
X109900000Y-98400000D02*
G75*
G02*
X111300000Y-98400000I700000J0D01*
G01*
%TO.C,D1*%
X105465000Y-77115000D02*
X105465000Y-79400000D01*
X106935000Y-77115000D02*
X105465000Y-77115000D01*
X106935000Y-79400000D02*
X106935000Y-77115000D01*
%TO.C,R5*%
X101877500Y-89037258D02*
X101877500Y-88562742D01*
X102922500Y-89037258D02*
X102922500Y-88562742D01*
%TD*%
M02*
