M48
; DRILL file {KiCad 7.0.1} date Wed Feb 21 11:50:48 2024
; FORMAT={-:-/ absolute / inch / decimal}
; #@! TF.CreationDate,2024-02-21T11:50:48-08:00
; #@! TF.GenerationSoftware,Kicad,Pcbnew,7.0.1
; #@! TF.FileFunction,Plated,1,2,PTH
FMAT,2
INCH
; #@! TA.AperFunction,Plated,PTH,ViaDrill
T1C0.0157
%
G90
G05
T1
X3.9764Y-3.8976
X4.0079Y-3.5669
X4.0472Y-2.9134
X4.0709Y-3.4567
X4.0866Y-3.189
X4.0866Y-3.2283
X4.0945Y-3.3858
X4.1339Y-3.0315
X4.1339Y-3.1299
X4.1604Y-3.4646
X4.2126Y-2.9134
X4.2224Y-3.1496
X4.2441Y-3.5197
X4.252Y-3.2283
X4.2756Y-3.0157
X4.2913Y-2.9134
X4.3228Y-3.1417
X4.3228Y-3.6693
X4.3307Y-3.8189
X4.3701Y-3.3465
X4.3701Y-3.5039
X4.3701Y-3.7402
T0
M30
