%TF.GenerationSoftware,KiCad,Pcbnew,7.0.1*%
%TF.CreationDate,2024-02-21T11:36:48-08:00*%
%TF.ProjectId,G305_lipo_PMIC,47333035-5f6c-4697-906f-5f504d49432e,rev?*%
%TF.SameCoordinates,Original*%
%TF.FileFunction,Copper,L1,Top*%
%TF.FilePolarity,Positive*%
%FSLAX46Y46*%
G04 Gerber Fmt 4.6, Leading zero omitted, Abs format (unit mm)*
G04 Created by KiCad (PCBNEW 7.0.1) date 2024-02-21 11:36:48*
%MOMM*%
%LPD*%
G01*
G04 APERTURE LIST*
G04 Aperture macros list*
%AMRoundRect*
0 Rectangle with rounded corners*
0 $1 Rounding radius*
0 $2 $3 $4 $5 $6 $7 $8 $9 X,Y pos of 4 corners*
0 Add a 4 corners polygon primitive as box body*
4,1,4,$2,$3,$4,$5,$6,$7,$8,$9,$2,$3,0*
0 Add four circle primitives for the rounded corners*
1,1,$1+$1,$2,$3*
1,1,$1+$1,$4,$5*
1,1,$1+$1,$6,$7*
1,1,$1+$1,$8,$9*
0 Add four rect primitives between the rounded corners*
20,1,$1+$1,$2,$3,$4,$5,0*
20,1,$1+$1,$4,$5,$6,$7,0*
20,1,$1+$1,$6,$7,$8,$9,0*
20,1,$1+$1,$8,$9,$2,$3,0*%
G04 Aperture macros list end*
%TA.AperFunction,SMDPad,CuDef*%
%ADD10R,2.200000X3.900000*%
%TD*%
%TA.AperFunction,SMDPad,CuDef*%
%ADD11C,1.000000*%
%TD*%
%TA.AperFunction,SMDPad,CuDef*%
%ADD12RoundRect,0.075000X-0.675000X-1.425000X0.675000X-1.425000X0.675000X1.425000X-0.675000X1.425000X0*%
%TD*%
%TA.AperFunction,SMDPad,CuDef*%
%ADD13RoundRect,0.250000X0.250000X0.475000X-0.250000X0.475000X-0.250000X-0.475000X0.250000X-0.475000X0*%
%TD*%
%TA.AperFunction,SMDPad,CuDef*%
%ADD14RoundRect,0.200000X-0.275000X0.200000X-0.275000X-0.200000X0.275000X-0.200000X0.275000X0.200000X0*%
%TD*%
%TA.AperFunction,SMDPad,CuDef*%
%ADD15RoundRect,0.200000X0.275000X-0.200000X0.275000X0.200000X-0.275000X0.200000X-0.275000X-0.200000X0*%
%TD*%
%TA.AperFunction,SMDPad,CuDef*%
%ADD16RoundRect,0.250000X-0.475000X0.250000X-0.475000X-0.250000X0.475000X-0.250000X0.475000X0.250000X0*%
%TD*%
%TA.AperFunction,SMDPad,CuDef*%
%ADD17RoundRect,0.200000X-0.200000X-0.275000X0.200000X-0.275000X0.200000X0.275000X-0.200000X0.275000X0*%
%TD*%
%TA.AperFunction,SMDPad,CuDef*%
%ADD18RoundRect,0.150000X-0.512500X-0.150000X0.512500X-0.150000X0.512500X0.150000X-0.512500X0.150000X0*%
%TD*%
%TA.AperFunction,SMDPad,CuDef*%
%ADD19RoundRect,0.250000X0.475000X-0.250000X0.475000X0.250000X-0.475000X0.250000X-0.475000X-0.250000X0*%
%TD*%
%TA.AperFunction,SMDPad,CuDef*%
%ADD20RoundRect,0.150000X-0.150000X0.512500X-0.150000X-0.512500X0.150000X-0.512500X0.150000X0.512500X0*%
%TD*%
%TA.AperFunction,SMDPad,CuDef*%
%ADD21RoundRect,0.218750X-0.256250X0.218750X-0.256250X-0.218750X0.256250X-0.218750X0.256250X0.218750X0*%
%TD*%
%TA.AperFunction,ViaPad*%
%ADD22C,0.800000*%
%TD*%
%TA.AperFunction,Conductor*%
%ADD23C,0.200000*%
%TD*%
G04 APERTURE END LIST*
D10*
%TO.P,L1,1*%
%TO.N,/SW_+1.2V*%
X107700000Y-97000000D03*
%TO.P,L1,2*%
%TO.N,+1.2V*%
X103900000Y-97000000D03*
%TD*%
D11*
%TO.P,TP1,1,1*%
%TO.N,V_BAT*%
X102400000Y-82600000D03*
%TD*%
D12*
%TO.P,J1,1,Pin_1*%
%TO.N,+1.2V*%
X101000000Y-71800000D03*
%TO.P,J1,2,Pin_2*%
%TO.N,GND*%
X103000000Y-71800000D03*
%TO.P,J1,3,Pin_3*%
%TO.N,V_BAT*%
X105000000Y-71800000D03*
%TO.P,J1,4,Pin_4*%
%TO.N,GND*%
X107000000Y-71800000D03*
%TO.P,J1,5,Pin_5*%
X109000000Y-71800000D03*
%TO.P,J1,6,Pin_6*%
%TO.N,V_USB*%
X111000000Y-71800000D03*
%TD*%
D13*
%TO.P,C4,1*%
%TO.N,V_BAT*%
X108550000Y-88000000D03*
%TO.P,C4,2*%
%TO.N,GND*%
X106650000Y-88000000D03*
%TD*%
D14*
%TO.P,R2,1*%
%TO.N,Net-(D1-K)*%
X103800000Y-77775000D03*
%TO.P,R2,2*%
%TO.N,Net-(U1-STAT)*%
X103800000Y-79425000D03*
%TD*%
D15*
%TO.P,R4,1*%
%TO.N,+1.2V*%
X104600000Y-89625001D03*
%TO.P,R4,2*%
%TO.N,/FB_+1.2V*%
X104600000Y-87975001D03*
%TD*%
D16*
%TO.P,C2,1*%
%TO.N,V_BAT*%
X102400000Y-84450000D03*
%TO.P,C2,2*%
%TO.N,GND*%
X102400000Y-86350000D03*
%TD*%
D17*
%TO.P,R3,1*%
%TO.N,Net-(U2-EN)*%
X106775000Y-85800000D03*
%TO.P,R3,2*%
%TO.N,V_BAT*%
X108425000Y-85800000D03*
%TD*%
D18*
%TO.P,U1,1,STAT*%
%TO.N,Net-(U1-STAT)*%
X105062500Y-81050000D03*
%TO.P,U1,2,VSS*%
%TO.N,GND*%
X105062500Y-82000000D03*
%TO.P,U1,3,VBAT*%
%TO.N,V_BAT*%
X105062500Y-82950000D03*
%TO.P,U1,4,VDD*%
%TO.N,V_USB*%
X107337500Y-82950000D03*
%TO.P,U1,5,PROG*%
%TO.N,Net-(U1-PROG)*%
X107337500Y-81050000D03*
%TD*%
D19*
%TO.P,C1,1*%
%TO.N,V_USB*%
X109600000Y-82950000D03*
%TO.P,C1,2*%
%TO.N,GND*%
X109600000Y-81050000D03*
%TD*%
D20*
%TO.P,U2,1,VIN*%
%TO.N,V_BAT*%
X108550000Y-90662500D03*
%TO.P,U2,2,GND*%
%TO.N,GND*%
X107600000Y-90662500D03*
%TO.P,U2,3,EN*%
%TO.N,Net-(U2-EN)*%
X106650000Y-90662500D03*
%TO.P,U2,4,FB*%
%TO.N,/FB_+1.2V*%
X106650000Y-92937500D03*
%TO.P,U2,5,SW*%
%TO.N,/SW_+1.2V*%
X108550000Y-92937500D03*
%TD*%
D11*
%TO.P,TP2,1,1*%
%TO.N,+1.2V*%
X101200000Y-95200000D03*
%TD*%
D15*
%TO.P,R1,1*%
%TO.N,Net-(U1-PROG)*%
X108600000Y-79425000D03*
%TO.P,R1,2*%
%TO.N,GND*%
X108600000Y-77775000D03*
%TD*%
D19*
%TO.P,C3,1*%
%TO.N,+1.2V*%
X104600000Y-93350000D03*
%TO.P,C3,2*%
%TO.N,/FB_+1.2V*%
X104600000Y-91450000D03*
%TD*%
%TO.P,C6,1*%
%TO.N,+1.2V*%
X102400000Y-93350000D03*
%TO.P,C6,2*%
%TO.N,GND*%
X102400000Y-91450000D03*
%TD*%
D11*
%TO.P,TP3,1,1*%
%TO.N,GND*%
X110600000Y-98400000D03*
%TD*%
D21*
%TO.P,D1,1,K*%
%TO.N,Net-(D1-K)*%
X106200000Y-77812500D03*
%TO.P,D1,2,A*%
%TO.N,V_USB*%
X106200000Y-79387500D03*
%TD*%
D15*
%TO.P,R5,1*%
%TO.N,/FB_+1.2V*%
X102400000Y-89625000D03*
%TO.P,R5,2*%
%TO.N,GND*%
X102400000Y-87975000D03*
%TD*%
D22*
%TO.N,GND*%
X108000000Y-82000000D03*
X101000000Y-99000000D03*
X103800000Y-82000000D03*
X111000000Y-89000000D03*
X107800000Y-89400000D03*
X109800000Y-79800000D03*
X109800000Y-93200000D03*
X107250000Y-80000000D03*
X103400000Y-87800000D03*
X105000000Y-79500000D03*
X102800000Y-74000000D03*
X105674500Y-88000000D03*
X109000000Y-74000000D03*
X107000000Y-74000000D03*
X111000000Y-95000000D03*
X110000000Y-97000000D03*
X111000000Y-85000000D03*
X103800000Y-81000000D03*
X105000000Y-77000000D03*
X101800000Y-90600000D03*
X108600000Y-76600000D03*
X104000000Y-86000000D03*
%TD*%
D23*
%TO.N,V_USB*%
X106200000Y-82600000D02*
X106550000Y-82950000D01*
X106200000Y-79387500D02*
X106200000Y-82600000D01*
X106550000Y-82950000D02*
X107337500Y-82950000D01*
%TO.N,+1.2V*%
X103575000Y-90650001D02*
X103575000Y-92175000D01*
X103575000Y-92175000D02*
X102400000Y-93350000D01*
X104600000Y-89625001D02*
X103575000Y-90650001D01*
%TO.N,Net-(D1-K)*%
X106200000Y-77812500D02*
X103837500Y-77812500D01*
X103837500Y-77812500D02*
X103800000Y-77775000D01*
%TO.N,Net-(U1-PROG)*%
X108600000Y-79425000D02*
X108600000Y-79787500D01*
X108600000Y-79787500D02*
X107337500Y-81050000D01*
%TO.N,Net-(U1-STAT)*%
X103812500Y-79425000D02*
X105062500Y-80675000D01*
X103800000Y-79425000D02*
X103812500Y-79425000D01*
X105062500Y-80675000D02*
X105062500Y-81050000D01*
%TO.N,Net-(U2-EN)*%
X107600000Y-86625000D02*
X106775000Y-85800000D01*
X107600000Y-88600000D02*
X107600000Y-86625000D01*
X106650000Y-89550000D02*
X107600000Y-88600000D01*
X106650000Y-90662500D02*
X106650000Y-89550000D01*
%TO.N,/FB_+1.2V*%
X105750000Y-89125001D02*
X104600000Y-87975001D01*
X105750000Y-91450000D02*
X105750000Y-89125001D01*
X104424999Y-87975001D02*
X104600000Y-87975001D01*
X104600000Y-91450000D02*
X105750000Y-91450000D01*
X105750000Y-91450000D02*
X106650000Y-92350000D01*
X102775000Y-89625000D02*
X104424999Y-87975001D01*
X106650000Y-92350000D02*
X106650000Y-92937500D01*
X102400000Y-89625000D02*
X102775000Y-89625000D01*
%TD*%
%TA.AperFunction,Conductor*%
%TO.N,V_BAT*%
G36*
X109738000Y-85216613D02*
G01*
X109783387Y-85262000D01*
X109800000Y-85324000D01*
X109800000Y-90548638D01*
X109790561Y-90596091D01*
X109763681Y-90636319D01*
X109036319Y-91363681D01*
X108996091Y-91390561D01*
X108948638Y-91400000D01*
X108324000Y-91400000D01*
X108262000Y-91383387D01*
X108216613Y-91338000D01*
X108200000Y-91276000D01*
X108200000Y-89907231D01*
X108206581Y-89867372D01*
X108225624Y-89831744D01*
X108228278Y-89828284D01*
X108228282Y-89828282D01*
X108324536Y-89702841D01*
X108385044Y-89556762D01*
X108405682Y-89400000D01*
X108385044Y-89243238D01*
X108324536Y-89097159D01*
X108228282Y-88971717D01*
X108102840Y-88875463D01*
X107967218Y-88819287D01*
X107916878Y-88780967D01*
X107891994Y-88722801D01*
X107899044Y-88659930D01*
X107900500Y-88656172D01*
X107900500Y-88649248D01*
X107903794Y-88620858D01*
X107903819Y-88620749D01*
X107905379Y-88614119D01*
X107901689Y-88587667D01*
X107900500Y-88570536D01*
X107900500Y-86694243D01*
X107903243Y-86677422D01*
X107902772Y-86667236D01*
X107902773Y-86667235D01*
X107900631Y-86620919D01*
X107900500Y-86615195D01*
X107900500Y-86596178D01*
X107898817Y-86581680D01*
X107897585Y-86555008D01*
X107894786Y-86548670D01*
X107886332Y-86521367D01*
X107885061Y-86514567D01*
X107871002Y-86491860D01*
X107862995Y-86476670D01*
X107852206Y-86452235D01*
X107847309Y-86447338D01*
X107829563Y-86424933D01*
X107818572Y-86407181D01*
X107800000Y-86341906D01*
X107800000Y-85200000D01*
X109200000Y-85200000D01*
X109676000Y-85200000D01*
X109738000Y-85216613D01*
G37*
%TD.AperFunction*%
%TD*%
%TA.AperFunction,Conductor*%
%TO.N,+1.2V*%
G36*
X101738000Y-70216613D02*
G01*
X101783387Y-70262000D01*
X101800000Y-70324000D01*
X101800000Y-74548638D01*
X101790561Y-74596091D01*
X101763681Y-74636319D01*
X101200000Y-75199999D01*
X101200000Y-90548715D01*
X101198939Y-90564901D01*
X101194317Y-90600000D01*
X101198939Y-90635099D01*
X101200000Y-90651285D01*
X101200000Y-92400000D01*
X101600000Y-92800000D01*
X101600000Y-96800000D01*
X100236319Y-95436319D01*
X100209439Y-95396091D01*
X100200000Y-95348638D01*
X100200000Y-70324000D01*
X100216613Y-70262000D01*
X100262000Y-70216613D01*
X100324000Y-70200000D01*
X101676000Y-70200000D01*
X101738000Y-70216613D01*
G37*
%TD.AperFunction*%
%TD*%
%TA.AperFunction,Conductor*%
%TO.N,/SW_+1.2V*%
G36*
X108938000Y-92216613D02*
G01*
X108983387Y-92262000D01*
X109000000Y-92324000D01*
X109000000Y-98748638D01*
X108990561Y-98796091D01*
X108963681Y-98836319D01*
X108836319Y-98963681D01*
X108796091Y-98990561D01*
X108748638Y-99000000D01*
X106524000Y-99000000D01*
X106462000Y-98983387D01*
X106416613Y-98938000D01*
X106400000Y-98876000D01*
X106400000Y-95251362D01*
X106409439Y-95203909D01*
X106436319Y-95163681D01*
X106436318Y-95163681D01*
X108200000Y-93400000D01*
X108200000Y-92324000D01*
X108216613Y-92262000D01*
X108262000Y-92216613D01*
X108324000Y-92200000D01*
X108876000Y-92200000D01*
X108938000Y-92216613D01*
G37*
%TD.AperFunction*%
%TD*%
%TA.AperFunction,Conductor*%
%TO.N,+1.2V*%
G36*
X105338000Y-92816613D02*
G01*
X105383387Y-92862000D01*
X105400000Y-92924000D01*
X105400000Y-94748638D01*
X105390561Y-94796091D01*
X105363681Y-94836319D01*
X105000000Y-95199999D01*
X105000000Y-98876000D01*
X104983387Y-98938000D01*
X104938000Y-98983387D01*
X104876000Y-99000000D01*
X103800195Y-99000000D01*
X103799732Y-98999999D01*
X102723537Y-98995980D01*
X102661733Y-98979213D01*
X102616536Y-98933847D01*
X102600000Y-98871981D01*
X102600000Y-97800001D01*
X102599999Y-97799999D01*
X101600000Y-96800000D01*
X101600000Y-92800000D01*
X105276000Y-92800000D01*
X105338000Y-92816613D01*
G37*
%TD.AperFunction*%
%TD*%
%TA.AperFunction,Conductor*%
%TO.N,V_BAT*%
G36*
X103371717Y-82428282D02*
G01*
X103479260Y-82510802D01*
X103497159Y-82524536D01*
X103643238Y-82585044D01*
X103800000Y-82605682D01*
X103956762Y-82585044D01*
X104102841Y-82524536D01*
X104203500Y-82447297D01*
X104266617Y-82422292D01*
X104333444Y-82434274D01*
X104448606Y-82490573D01*
X104516737Y-82500500D01*
X104516740Y-82500500D01*
X105608260Y-82500500D01*
X105608263Y-82500500D01*
X105649139Y-82494543D01*
X105676393Y-82490573D01*
X105719700Y-82469401D01*
X105779132Y-82456902D01*
X105837373Y-82474125D01*
X105880449Y-82516940D01*
X105898027Y-82575075D01*
X105899368Y-82604078D01*
X105899500Y-82609805D01*
X105899500Y-82628819D01*
X105901181Y-82643307D01*
X105902415Y-82669993D01*
X105905213Y-82676330D01*
X105913666Y-82703626D01*
X105914938Y-82710434D01*
X105928997Y-82733140D01*
X105937002Y-82748327D01*
X105947792Y-82772763D01*
X105952688Y-82777659D01*
X105970437Y-82800067D01*
X105981428Y-82817819D01*
X106000000Y-82883094D01*
X106000000Y-83400000D01*
X106400000Y-83800000D01*
X107748638Y-83800000D01*
X107796091Y-83809439D01*
X107836318Y-83836318D01*
X109200000Y-85200000D01*
X107249099Y-85200000D01*
X107192804Y-85186485D01*
X107100302Y-85139353D01*
X107006521Y-85124500D01*
X106543485Y-85124500D01*
X106449695Y-85139354D01*
X106357197Y-85186485D01*
X106300902Y-85200000D01*
X102051362Y-85200000D01*
X102003909Y-85190561D01*
X101963681Y-85163681D01*
X101636319Y-84836319D01*
X101609439Y-84796091D01*
X101600000Y-84748638D01*
X101600000Y-82400000D01*
X103350016Y-82400000D01*
X103371717Y-82428282D01*
G37*
%TD.AperFunction*%
%TD*%
%TA.AperFunction,Conductor*%
%TO.N,V_USB*%
G36*
X107532628Y-82406581D02*
G01*
X107568256Y-82425624D01*
X107571715Y-82428278D01*
X107571718Y-82428282D01*
X107697159Y-82524536D01*
X107843238Y-82585044D01*
X108000000Y-82605682D01*
X108156762Y-82585044D01*
X108302841Y-82524536D01*
X108428282Y-82428282D01*
X108428284Y-82428278D01*
X108431744Y-82425624D01*
X108467372Y-82406581D01*
X108507231Y-82400000D01*
X109600000Y-82400000D01*
X110600000Y-82400000D01*
X110600000Y-83587949D01*
X110596091Y-83590561D01*
X110548638Y-83600000D01*
X108451362Y-83600000D01*
X108403909Y-83590561D01*
X108363681Y-83563681D01*
X108200000Y-83400000D01*
X106724000Y-83400000D01*
X106662000Y-83383387D01*
X106616613Y-83338000D01*
X106600000Y-83276000D01*
X106600000Y-82524000D01*
X106616613Y-82462000D01*
X106662000Y-82416613D01*
X106724000Y-82400000D01*
X107492769Y-82400000D01*
X107532628Y-82406581D01*
G37*
%TD.AperFunction*%
%TD*%
%TA.AperFunction,Conductor*%
%TO.N,V_USB*%
G36*
X111738000Y-70216613D02*
G01*
X111783387Y-70262000D01*
X111800000Y-70324000D01*
X111800000Y-82348638D01*
X111790561Y-82396091D01*
X111763681Y-82436319D01*
X110636319Y-83563681D01*
X110600000Y-83587949D01*
X110600000Y-82400000D01*
X109600000Y-82400000D01*
X110316916Y-81683083D01*
X110330944Y-81671011D01*
X110397150Y-81622150D01*
X110446009Y-81555947D01*
X110458080Y-81541919D01*
X110600000Y-81400000D01*
X110600000Y-74000000D01*
X110236319Y-73636319D01*
X110209439Y-73596091D01*
X110200000Y-73548638D01*
X110200000Y-70324000D01*
X110216613Y-70262000D01*
X110262000Y-70216613D01*
X110324000Y-70200000D01*
X111676000Y-70200000D01*
X111738000Y-70216613D01*
G37*
%TD.AperFunction*%
%TD*%
%TA.AperFunction,Conductor*%
%TO.N,V_BAT*%
G36*
X105738000Y-70216613D02*
G01*
X105783387Y-70262000D01*
X105800000Y-70324000D01*
X105800000Y-74348638D01*
X105790561Y-74396091D01*
X105763681Y-74436319D01*
X103000000Y-77199999D01*
X103000000Y-82000000D01*
X103238663Y-82238663D01*
X103265543Y-82278890D01*
X103275464Y-82302842D01*
X103350016Y-82400000D01*
X101600000Y-82400000D01*
X101600000Y-76251362D01*
X101609439Y-76203909D01*
X101636319Y-76163681D01*
X101636319Y-76163680D01*
X104200000Y-73600000D01*
X104200000Y-70324000D01*
X104216613Y-70262000D01*
X104262000Y-70216613D01*
X104324000Y-70200000D01*
X105676000Y-70200000D01*
X105738000Y-70216613D01*
G37*
%TD.AperFunction*%
%TD*%
%TA.AperFunction,Conductor*%
%TO.N,GND*%
G36*
X111948385Y-82690164D02*
G01*
X111985985Y-82734187D01*
X111999500Y-82790482D01*
X111999500Y-99875500D01*
X111982887Y-99937500D01*
X111937500Y-99982887D01*
X111875500Y-99999500D01*
X100124500Y-99999500D01*
X100062500Y-99982887D01*
X100017113Y-99937500D01*
X100000500Y-99875500D01*
X100000500Y-95790482D01*
X100014015Y-95734187D01*
X100051615Y-95690164D01*
X100105102Y-95668009D01*
X100162818Y-95672551D01*
X100212181Y-95702801D01*
X102358180Y-97848800D01*
X102385060Y-97889028D01*
X102394499Y-97936481D01*
X102394499Y-98871982D01*
X102401468Y-98925042D01*
X102418006Y-98986916D01*
X102438438Y-99036375D01*
X102470955Y-99078887D01*
X102516149Y-99124250D01*
X102516152Y-99124252D01*
X102558540Y-99156925D01*
X102607927Y-99177544D01*
X102669731Y-99194311D01*
X102722770Y-99201479D01*
X102734467Y-99201522D01*
X103798874Y-99205498D01*
X103799485Y-99205498D01*
X103799732Y-99205499D01*
X104876000Y-99205500D01*
X104929188Y-99198498D01*
X104991188Y-99181885D01*
X105040750Y-99161355D01*
X105044255Y-99158664D01*
X105057756Y-99152547D01*
X105078229Y-99138867D01*
X105078231Y-99138867D01*
X105144552Y-99094552D01*
X105188867Y-99028231D01*
X105200500Y-98969748D01*
X105200500Y-98922106D01*
X105201561Y-98905921D01*
X105205500Y-98876001D01*
X106194500Y-98876001D01*
X106201501Y-98929186D01*
X106218116Y-98991192D01*
X106236833Y-99036376D01*
X106238645Y-99040750D01*
X106267909Y-99078887D01*
X106271307Y-99083315D01*
X106316684Y-99128692D01*
X106316688Y-99128695D01*
X106316690Y-99128697D01*
X106359250Y-99161355D01*
X106408812Y-99181885D01*
X106470812Y-99198498D01*
X106493456Y-99201479D01*
X106523999Y-99205500D01*
X106524000Y-99205500D01*
X108748636Y-99205500D01*
X108748638Y-99205500D01*
X108788729Y-99201551D01*
X108788733Y-99201550D01*
X108788735Y-99201550D01*
X108836180Y-99192113D01*
X108845167Y-99188390D01*
X108910262Y-99161427D01*
X108950490Y-99134547D01*
X108981629Y-99108991D01*
X109108991Y-98981629D01*
X109134547Y-98950490D01*
X109161427Y-98910262D01*
X109192112Y-98836182D01*
X109192111Y-98836182D01*
X109192113Y-98836180D01*
X109201550Y-98788735D01*
X109205500Y-98748636D01*
X109205500Y-92323999D01*
X109201981Y-92297272D01*
X109198498Y-92270812D01*
X109181885Y-92208812D01*
X109161355Y-92159250D01*
X109128697Y-92116690D01*
X109128695Y-92116688D01*
X109128692Y-92116684D01*
X109083315Y-92071307D01*
X109083310Y-92071303D01*
X109040750Y-92038645D01*
X109040746Y-92038643D01*
X108991192Y-92018116D01*
X108929186Y-92001501D01*
X108876001Y-91994500D01*
X108876000Y-91994500D01*
X108324000Y-91994500D01*
X108323999Y-91994500D01*
X108270813Y-92001501D01*
X108208807Y-92018116D01*
X108159253Y-92038643D01*
X108116684Y-92071307D01*
X108071307Y-92116684D01*
X108038643Y-92159253D01*
X108018116Y-92208807D01*
X108001501Y-92270813D01*
X107994500Y-92323999D01*
X107994500Y-93263518D01*
X107985061Y-93310971D01*
X107958181Y-93351199D01*
X106291013Y-95018365D01*
X106265448Y-95049514D01*
X106238569Y-95089743D01*
X106207887Y-95163818D01*
X106198449Y-95211264D01*
X106194500Y-95251364D01*
X106194500Y-98876001D01*
X105205500Y-98876001D01*
X105205500Y-95336482D01*
X105214939Y-95289029D01*
X105241816Y-95248803D01*
X105508991Y-94981630D01*
X105534547Y-94950490D01*
X105561427Y-94910262D01*
X105592112Y-94836182D01*
X105592111Y-94836182D01*
X105592113Y-94836180D01*
X105601550Y-94788735D01*
X105605500Y-94748636D01*
X105605500Y-92923999D01*
X105598498Y-92870813D01*
X105598498Y-92870812D01*
X105581885Y-92808812D01*
X105561355Y-92759250D01*
X105528697Y-92716690D01*
X105528695Y-92716688D01*
X105528692Y-92716684D01*
X105483315Y-92671307D01*
X105483310Y-92671303D01*
X105440750Y-92638645D01*
X105440746Y-92638643D01*
X105391192Y-92618116D01*
X105329186Y-92601501D01*
X105276001Y-92594500D01*
X105276000Y-92594500D01*
X103880033Y-92594500D01*
X103824769Y-92581504D01*
X103781089Y-92545241D01*
X103758149Y-92493311D01*
X103760757Y-92436599D01*
X103788366Y-92386994D01*
X103790474Y-92384681D01*
X103794380Y-92380589D01*
X103807174Y-92367797D01*
X103807178Y-92367790D01*
X103807867Y-92367102D01*
X103816922Y-92355671D01*
X103820999Y-92351199D01*
X103834916Y-92335933D01*
X103837415Y-92329479D01*
X103850743Y-92304192D01*
X103854657Y-92298481D01*
X103855706Y-92294022D01*
X103860773Y-92272479D01*
X103865848Y-92256086D01*
X103875500Y-92231173D01*
X103875500Y-92231170D01*
X103880328Y-92218707D01*
X103917158Y-92167756D01*
X103974242Y-92141417D01*
X104036908Y-92146459D01*
X104040301Y-92147646D01*
X104070731Y-92150500D01*
X104070734Y-92150500D01*
X105129266Y-92150500D01*
X105129269Y-92150500D01*
X105144482Y-92149072D01*
X105159699Y-92147646D01*
X105287882Y-92102793D01*
X105287882Y-92102792D01*
X105287884Y-92102792D01*
X105397150Y-92022150D01*
X105477792Y-91912884D01*
X105493000Y-91869422D01*
X105527414Y-91817916D01*
X105582449Y-91789484D01*
X105644369Y-91791221D01*
X105697723Y-91822694D01*
X106120419Y-92245390D01*
X106150429Y-92294022D01*
X106155443Y-92350947D01*
X106151131Y-92380543D01*
X106149501Y-92391737D01*
X106149500Y-92391741D01*
X106149500Y-93483263D01*
X106159426Y-93551390D01*
X106210802Y-93656484D01*
X106293515Y-93739197D01*
X106293516Y-93739197D01*
X106293517Y-93739198D01*
X106398607Y-93790573D01*
X106425860Y-93794543D01*
X106466737Y-93800500D01*
X106466740Y-93800500D01*
X106833260Y-93800500D01*
X106833263Y-93800500D01*
X106867326Y-93795536D01*
X106901393Y-93790573D01*
X107006483Y-93739198D01*
X107089198Y-93656483D01*
X107140573Y-93551393D01*
X107150500Y-93483260D01*
X107150500Y-92391740D01*
X107147011Y-92367797D01*
X107140573Y-92323609D01*
X107140573Y-92323607D01*
X107089198Y-92218517D01*
X107089197Y-92218516D01*
X107089197Y-92218515D01*
X107006484Y-92135802D01*
X106901390Y-92084425D01*
X106834419Y-92074668D01*
X106796688Y-92062796D01*
X106764616Y-92039645D01*
X106462152Y-91737181D01*
X106431902Y-91687818D01*
X106427360Y-91630102D01*
X106449515Y-91576615D01*
X106493538Y-91539015D01*
X106549833Y-91525500D01*
X106833263Y-91525500D01*
X106867326Y-91520536D01*
X106901393Y-91515573D01*
X107006483Y-91464198D01*
X107089198Y-91381483D01*
X107140573Y-91276393D01*
X107150500Y-91208260D01*
X107150500Y-90116740D01*
X107140573Y-90048607D01*
X107089198Y-89943517D01*
X107089197Y-89943516D01*
X107089197Y-89943515D01*
X106991852Y-89846170D01*
X106994037Y-89843984D01*
X106969314Y-89821695D01*
X106950500Y-89756029D01*
X106950500Y-89725833D01*
X106959939Y-89678380D01*
X106986819Y-89638152D01*
X107138041Y-89486930D01*
X107652266Y-88972703D01*
X107702505Y-88942173D01*
X107761163Y-88938215D01*
X107815050Y-88961718D01*
X107842747Y-88982802D01*
X107888577Y-89009144D01*
X107984123Y-89048720D01*
X108012149Y-89064900D01*
X108068768Y-89108345D01*
X108091656Y-89131234D01*
X108135094Y-89187846D01*
X108151278Y-89215877D01*
X108178585Y-89281801D01*
X108186963Y-89313068D01*
X108196277Y-89383813D01*
X108196277Y-89416185D01*
X108186963Y-89486930D01*
X108178585Y-89518196D01*
X108151278Y-89584122D01*
X108135093Y-89612156D01*
X108068833Y-89698508D01*
X108068801Y-89698546D01*
X108059482Y-89710696D01*
X108059447Y-89710739D01*
X108047983Y-89725680D01*
X108046078Y-89730030D01*
X108046778Y-89730404D01*
X108044391Y-89734868D01*
X108044388Y-89734874D01*
X108036832Y-89749008D01*
X108025343Y-89770504D01*
X108007129Y-89824166D01*
X108003826Y-89833896D01*
X107999392Y-89860751D01*
X107997244Y-89873761D01*
X107994500Y-89907231D01*
X107994500Y-91276001D01*
X108001501Y-91329186D01*
X108018116Y-91391192D01*
X108038643Y-91440746D01*
X108038645Y-91440750D01*
X108056637Y-91464197D01*
X108071307Y-91483315D01*
X108116684Y-91528692D01*
X108116688Y-91528695D01*
X108116690Y-91528697D01*
X108159250Y-91561355D01*
X108208812Y-91581885D01*
X108270812Y-91598498D01*
X108293995Y-91601550D01*
X108323999Y-91605500D01*
X108324000Y-91605500D01*
X108948636Y-91605500D01*
X108948638Y-91605500D01*
X108988729Y-91601551D01*
X108988733Y-91601550D01*
X108988735Y-91601550D01*
X109036180Y-91592113D01*
X109045167Y-91588390D01*
X109110262Y-91561427D01*
X109150490Y-91534547D01*
X109181629Y-91508991D01*
X109908991Y-90781629D01*
X109934547Y-90750490D01*
X109961427Y-90710262D01*
X109992112Y-90636182D01*
X109992111Y-90636182D01*
X109992113Y-90636180D01*
X110001550Y-90588735D01*
X110003503Y-90568914D01*
X110005500Y-90548638D01*
X110005500Y-85324000D01*
X109998498Y-85270812D01*
X109981885Y-85208812D01*
X109961355Y-85159250D01*
X109928697Y-85116690D01*
X109928695Y-85116688D01*
X109928692Y-85116684D01*
X109883315Y-85071307D01*
X109883310Y-85071303D01*
X109840750Y-85038645D01*
X109840746Y-85038643D01*
X109791192Y-85018116D01*
X109729186Y-85001501D01*
X109676001Y-84994500D01*
X109676000Y-84994500D01*
X109336482Y-84994500D01*
X109289029Y-84985061D01*
X109248801Y-84958181D01*
X108301984Y-84011364D01*
X108270321Y-83957342D01*
X108269091Y-83894737D01*
X108298607Y-83839513D01*
X108351344Y-83805753D01*
X108405048Y-83802584D01*
X108405209Y-83800954D01*
X108421758Y-83802584D01*
X108451362Y-83805500D01*
X110548636Y-83805500D01*
X110548638Y-83805500D01*
X110588729Y-83801551D01*
X110588733Y-83801550D01*
X110588735Y-83801550D01*
X110636177Y-83792113D01*
X110636177Y-83792112D01*
X110636182Y-83792112D01*
X110710263Y-83761426D01*
X110714172Y-83758814D01*
X110750490Y-83734547D01*
X110781629Y-83708991D01*
X111787819Y-82702801D01*
X111837182Y-82672551D01*
X111894898Y-82668009D01*
X111948385Y-82690164D01*
G37*
%TD.AperFunction*%
%TA.AperFunction,Conductor*%
G36*
X101567818Y-85077551D02*
G01*
X101617180Y-85107800D01*
X101818371Y-85308991D01*
X101849510Y-85334547D01*
X101889738Y-85361427D01*
X101933134Y-85379402D01*
X101963819Y-85392113D01*
X102011264Y-85401550D01*
X102011267Y-85401550D01*
X102011271Y-85401551D01*
X102051362Y-85405500D01*
X106050500Y-85405500D01*
X106112500Y-85422113D01*
X106157887Y-85467500D01*
X106174500Y-85529500D01*
X106174500Y-86106514D01*
X106174501Y-86106518D01*
X106189354Y-86200304D01*
X106189354Y-86200305D01*
X106189355Y-86200306D01*
X106246949Y-86313342D01*
X106336656Y-86403049D01*
X106336658Y-86403050D01*
X106449696Y-86460646D01*
X106543481Y-86475500D01*
X106974166Y-86475499D01*
X107021619Y-86484938D01*
X107061847Y-86511818D01*
X107263181Y-86713152D01*
X107290061Y-86753380D01*
X107299500Y-86800833D01*
X107299500Y-88424167D01*
X107290061Y-88471620D01*
X107263181Y-88511848D01*
X106486475Y-89288552D01*
X106472639Y-89298508D01*
X106434523Y-89340318D01*
X106430573Y-89344454D01*
X106417141Y-89357886D01*
X106408087Y-89369317D01*
X106390083Y-89389067D01*
X106387578Y-89395534D01*
X106374259Y-89420802D01*
X106370343Y-89426518D01*
X106364228Y-89452517D01*
X106359151Y-89468913D01*
X106349500Y-89493827D01*
X106349500Y-89500751D01*
X106346206Y-89529144D01*
X106344621Y-89535881D01*
X106348311Y-89562332D01*
X106349500Y-89579465D01*
X106349500Y-89756029D01*
X106330686Y-89821695D01*
X106305962Y-89843984D01*
X106308148Y-89846170D01*
X106262181Y-89892137D01*
X106212818Y-89922387D01*
X106155102Y-89926929D01*
X106101615Y-89904774D01*
X106064015Y-89860751D01*
X106050500Y-89804456D01*
X106050500Y-89194248D01*
X106053244Y-89177421D01*
X106052773Y-89167238D01*
X106052774Y-89167237D01*
X106050632Y-89120909D01*
X106050500Y-89115183D01*
X106050500Y-89096183D01*
X106048818Y-89081698D01*
X106047585Y-89055010D01*
X106044785Y-89048669D01*
X106036332Y-89021368D01*
X106035061Y-89014569D01*
X106035061Y-89014568D01*
X106020997Y-88991854D01*
X106012994Y-88976670D01*
X106002206Y-88952236D01*
X105997309Y-88947339D01*
X105979563Y-88924934D01*
X105975919Y-88919049D01*
X105954602Y-88902951D01*
X105941648Y-88891678D01*
X105311818Y-88261848D01*
X105284938Y-88221620D01*
X105275499Y-88174171D01*
X105275499Y-87743483D01*
X105260646Y-87649697D01*
X105232965Y-87595371D01*
X105203050Y-87536658D01*
X105113343Y-87446951D01*
X105000302Y-87389354D01*
X104906521Y-87374501D01*
X104293485Y-87374501D01*
X104246589Y-87381928D01*
X104199696Y-87389355D01*
X104199694Y-87389355D01*
X104199693Y-87389356D01*
X104086657Y-87446950D01*
X103996950Y-87536657D01*
X103939353Y-87649698D01*
X103924500Y-87743480D01*
X103924500Y-87999166D01*
X103915061Y-88046619D01*
X103888181Y-88086847D01*
X102953685Y-89021342D01*
X102910442Y-89049425D01*
X102859515Y-89057491D01*
X102809710Y-89044146D01*
X102800304Y-89039353D01*
X102706521Y-89024500D01*
X102093485Y-89024500D01*
X102046589Y-89031927D01*
X101999696Y-89039354D01*
X101999694Y-89039354D01*
X101999693Y-89039355D01*
X101886657Y-89096949D01*
X101796950Y-89186656D01*
X101739353Y-89299697D01*
X101724500Y-89393478D01*
X101724500Y-89856514D01*
X101727100Y-89872929D01*
X101739354Y-89950304D01*
X101739354Y-89950305D01*
X101739355Y-89950306D01*
X101796949Y-90063342D01*
X101886656Y-90153049D01*
X101886658Y-90153050D01*
X101999696Y-90210646D01*
X102093481Y-90225500D01*
X102706518Y-90225499D01*
X102800304Y-90210646D01*
X102913342Y-90153050D01*
X103003050Y-90063342D01*
X103060646Y-89950304D01*
X103075500Y-89856519D01*
X103075499Y-89800831D01*
X103084938Y-89753380D01*
X103111815Y-89713154D01*
X104213153Y-88611816D01*
X104253378Y-88584939D01*
X104300826Y-88575500D01*
X104724165Y-88575500D01*
X104771618Y-88584939D01*
X104811846Y-88611819D01*
X105014519Y-88814492D01*
X105045914Y-88867577D01*
X105047852Y-88929220D01*
X105019854Y-88984173D01*
X104968846Y-89018841D01*
X104916278Y-89023812D01*
X104916278Y-89024501D01*
X104908989Y-89024501D01*
X104907446Y-89024647D01*
X104906523Y-89024501D01*
X104293485Y-89024501D01*
X104246588Y-89031928D01*
X104199696Y-89039355D01*
X104199694Y-89039355D01*
X104199693Y-89039356D01*
X104086657Y-89096950D01*
X103996950Y-89186657D01*
X103939353Y-89299698D01*
X103924500Y-89393480D01*
X103924500Y-89824166D01*
X103915061Y-89871619D01*
X103888181Y-89911847D01*
X103411475Y-90388553D01*
X103397639Y-90398509D01*
X103359523Y-90440319D01*
X103355573Y-90444455D01*
X103342141Y-90457887D01*
X103333087Y-90469318D01*
X103315083Y-90489068D01*
X103312578Y-90495535D01*
X103299259Y-90520803D01*
X103295343Y-90526519D01*
X103289228Y-90552518D01*
X103284151Y-90568914D01*
X103274500Y-90593828D01*
X103274500Y-90600752D01*
X103271206Y-90629145D01*
X103269621Y-90635882D01*
X103273311Y-90662333D01*
X103274500Y-90679466D01*
X103274500Y-91999167D01*
X103265061Y-92046620D01*
X103238181Y-92086848D01*
X102766848Y-92558181D01*
X102726620Y-92585061D01*
X102679167Y-92594500D01*
X101736482Y-92594500D01*
X101689029Y-92585061D01*
X101648801Y-92558181D01*
X101441819Y-92351199D01*
X101414939Y-92310971D01*
X101405500Y-92263518D01*
X101405500Y-90651299D01*
X101405500Y-90651285D01*
X101405060Y-90637843D01*
X101403999Y-90621657D01*
X101403063Y-90612156D01*
X101403063Y-90587842D01*
X101403999Y-90578339D01*
X101404617Y-90568914D01*
X101405060Y-90562157D01*
X101405500Y-90548715D01*
X101405500Y-85195482D01*
X101419015Y-85139187D01*
X101456615Y-85095164D01*
X101510102Y-85073009D01*
X101567818Y-85077551D01*
G37*
%TD.AperFunction*%
%TA.AperFunction,Conductor*%
G36*
X109977276Y-70015142D02*
G01*
X110021925Y-70055610D01*
X110042225Y-70112347D01*
X110033383Y-70171954D01*
X110018114Y-70208814D01*
X110001501Y-70270813D01*
X109994500Y-70323999D01*
X109994500Y-73548636D01*
X109998449Y-73588735D01*
X110007886Y-73636180D01*
X110033307Y-73697548D01*
X110038573Y-73710262D01*
X110065453Y-73750490D01*
X110065458Y-73750496D01*
X110091008Y-73781628D01*
X110358181Y-74048801D01*
X110385061Y-74089029D01*
X110394500Y-74136482D01*
X110394500Y-81263516D01*
X110385061Y-81310969D01*
X110358180Y-81351198D01*
X110312782Y-81396594D01*
X110302301Y-81407891D01*
X110290241Y-81421907D01*
X110280667Y-81433912D01*
X110261298Y-81460158D01*
X110235163Y-81486294D01*
X110208894Y-81505681D01*
X110196905Y-81515241D01*
X110182884Y-81527306D01*
X110171585Y-81537791D01*
X109551198Y-82158181D01*
X109510970Y-82185061D01*
X109463517Y-82194500D01*
X108507231Y-82194500D01*
X108473761Y-82197244D01*
X108473754Y-82197245D01*
X108473755Y-82197245D01*
X108433896Y-82203826D01*
X108433893Y-82203826D01*
X108433893Y-82203827D01*
X108370504Y-82225343D01*
X108349008Y-82236832D01*
X108334874Y-82244388D01*
X108334868Y-82244391D01*
X108330404Y-82246778D01*
X108330030Y-82246078D01*
X108325680Y-82247983D01*
X108310739Y-82259447D01*
X108310696Y-82259482D01*
X108306675Y-82262565D01*
X108306672Y-82262568D01*
X108303212Y-82265222D01*
X108298546Y-82268801D01*
X108298508Y-82268833D01*
X108212156Y-82335093D01*
X108184122Y-82351278D01*
X108118196Y-82378585D01*
X108086930Y-82386963D01*
X108016185Y-82396277D01*
X107983813Y-82396277D01*
X107913068Y-82386963D01*
X107881802Y-82378585D01*
X107815879Y-82351279D01*
X107787844Y-82335094D01*
X107731235Y-82291656D01*
X107693357Y-82262591D01*
X107683513Y-82256244D01*
X107665123Y-82244386D01*
X107629498Y-82225344D01*
X107574665Y-82206732D01*
X107566104Y-82203826D01*
X107526245Y-82197245D01*
X107526243Y-82197244D01*
X107526238Y-82197244D01*
X107492769Y-82194500D01*
X106724000Y-82194500D01*
X106723999Y-82194500D01*
X106670810Y-82201502D01*
X106656592Y-82205312D01*
X106600307Y-82207154D01*
X106549013Y-82183912D01*
X106513288Y-82140380D01*
X106500500Y-82085537D01*
X106500500Y-81630147D01*
X106516061Y-81570006D01*
X106558838Y-81524959D01*
X106618096Y-81506312D01*
X106678960Y-81518746D01*
X106723607Y-81540573D01*
X106740640Y-81543054D01*
X106791737Y-81550500D01*
X106791740Y-81550500D01*
X107883260Y-81550500D01*
X107883263Y-81550500D01*
X107917326Y-81545536D01*
X107951393Y-81540573D01*
X108056483Y-81489198D01*
X108139198Y-81406483D01*
X108190573Y-81301393D01*
X108200500Y-81233260D01*
X108200500Y-80866740D01*
X108190573Y-80798607D01*
X108171434Y-80759457D01*
X108158941Y-80710121D01*
X108167318Y-80659922D01*
X108195152Y-80617318D01*
X108750653Y-80061817D01*
X108790881Y-80034938D01*
X108838334Y-80025499D01*
X108906514Y-80025499D01*
X108906518Y-80025499D01*
X109000304Y-80010646D01*
X109113342Y-79953050D01*
X109203050Y-79863342D01*
X109260646Y-79750304D01*
X109275500Y-79656519D01*
X109275499Y-79193482D01*
X109260646Y-79099696D01*
X109228996Y-79037580D01*
X109203050Y-78986657D01*
X109113343Y-78896950D01*
X109000302Y-78839353D01*
X108906521Y-78824500D01*
X108293485Y-78824500D01*
X108246589Y-78831927D01*
X108199696Y-78839354D01*
X108199694Y-78839354D01*
X108199693Y-78839355D01*
X108086657Y-78896949D01*
X107996950Y-78986656D01*
X107939353Y-79099697D01*
X107924500Y-79193478D01*
X107924500Y-79656514D01*
X107924501Y-79656518D01*
X107939354Y-79750304D01*
X107939354Y-79750305D01*
X107939355Y-79750306D01*
X107990558Y-79850798D01*
X108003903Y-79900603D01*
X107995837Y-79951530D01*
X107967754Y-79994773D01*
X107449348Y-80513181D01*
X107409120Y-80540061D01*
X107361667Y-80549500D01*
X106791737Y-80549500D01*
X106723608Y-80559426D01*
X106678961Y-80581253D01*
X106618096Y-80593688D01*
X106558838Y-80575041D01*
X106516061Y-80529994D01*
X106500500Y-80469853D01*
X106500500Y-80129624D01*
X106514013Y-80073334D01*
X106551607Y-80029312D01*
X106571122Y-80021225D01*
X106569921Y-80018867D01*
X106587418Y-80009951D01*
X106587420Y-80009951D01*
X106705751Y-79949658D01*
X106799658Y-79855751D01*
X106859951Y-79737420D01*
X106871874Y-79662138D01*
X106875500Y-79639248D01*
X106875500Y-79135752D01*
X106859951Y-79037581D01*
X106859951Y-79037580D01*
X106799658Y-78919249D01*
X106705751Y-78825342D01*
X106587420Y-78765049D01*
X106587419Y-78765048D01*
X106587418Y-78765048D01*
X106489248Y-78749500D01*
X106489246Y-78749500D01*
X105910754Y-78749500D01*
X105910752Y-78749500D01*
X105812581Y-78765048D01*
X105694247Y-78825343D01*
X105600343Y-78919247D01*
X105540048Y-79037581D01*
X105524500Y-79135752D01*
X105524500Y-79639248D01*
X105540048Y-79737418D01*
X105540048Y-79737419D01*
X105540049Y-79737420D01*
X105600342Y-79855751D01*
X105694249Y-79949658D01*
X105812580Y-80009951D01*
X105830079Y-80018867D01*
X105828877Y-80021225D01*
X105848393Y-80029312D01*
X105885987Y-80073334D01*
X105899500Y-80129624D01*
X105899500Y-80469853D01*
X105883939Y-80529994D01*
X105841162Y-80575041D01*
X105781904Y-80593688D01*
X105721039Y-80581253D01*
X105676391Y-80559426D01*
X105608263Y-80549500D01*
X105608260Y-80549500D01*
X105413333Y-80549500D01*
X105365880Y-80540061D01*
X105325652Y-80513181D01*
X105309810Y-80497339D01*
X105292063Y-80474933D01*
X105288419Y-80469048D01*
X105267102Y-80452950D01*
X105254148Y-80441677D01*
X104511818Y-79699347D01*
X104484938Y-79659119D01*
X104475499Y-79611670D01*
X104475499Y-79193482D01*
X104460646Y-79099696D01*
X104428996Y-79037580D01*
X104403050Y-78986657D01*
X104313343Y-78896950D01*
X104200302Y-78839353D01*
X104106521Y-78824500D01*
X103493485Y-78824500D01*
X103452736Y-78830953D01*
X103399696Y-78839354D01*
X103399694Y-78839354D01*
X103399694Y-78839355D01*
X103385793Y-78846438D01*
X103324630Y-78859856D01*
X103264709Y-78841679D01*
X103221310Y-78796541D01*
X103205500Y-78735952D01*
X103205500Y-78464048D01*
X103221310Y-78403459D01*
X103264710Y-78358321D01*
X103324632Y-78340144D01*
X103385794Y-78353562D01*
X103399696Y-78360646D01*
X103493481Y-78375500D01*
X104106518Y-78375499D01*
X104200304Y-78360646D01*
X104313342Y-78303050D01*
X104403050Y-78213342D01*
X104403049Y-78213342D01*
X104419681Y-78180704D01*
X104465376Y-78131272D01*
X104530165Y-78113000D01*
X105438881Y-78113000D01*
X105503671Y-78131272D01*
X105549365Y-78180705D01*
X105600341Y-78280750D01*
X105600342Y-78280751D01*
X105694249Y-78374658D01*
X105812580Y-78434951D01*
X105845304Y-78440134D01*
X105910752Y-78450500D01*
X105910754Y-78450500D01*
X106489246Y-78450500D01*
X106489248Y-78450500D01*
X106538332Y-78442725D01*
X106587420Y-78434951D01*
X106705751Y-78374658D01*
X106799658Y-78280751D01*
X106859951Y-78162420D01*
X106875500Y-78064246D01*
X106875500Y-77560754D01*
X106859951Y-77462580D01*
X106799658Y-77344249D01*
X106705751Y-77250342D01*
X106587420Y-77190049D01*
X106587419Y-77190048D01*
X106587418Y-77190048D01*
X106489248Y-77174500D01*
X106489246Y-77174500D01*
X105910754Y-77174500D01*
X105910752Y-77174500D01*
X105812581Y-77190048D01*
X105694247Y-77250343D01*
X105600341Y-77344249D01*
X105549365Y-77444295D01*
X105503671Y-77493728D01*
X105438881Y-77512000D01*
X104568378Y-77512000D01*
X104503588Y-77493727D01*
X104457894Y-77444295D01*
X104406917Y-77344247D01*
X104403050Y-77336657D01*
X104313343Y-77246950D01*
X104200302Y-77189353D01*
X104106521Y-77174500D01*
X103615480Y-77174500D01*
X103559185Y-77160985D01*
X103515162Y-77123385D01*
X103493007Y-77069898D01*
X103497549Y-77012182D01*
X103527797Y-76962821D01*
X105908991Y-74581629D01*
X105934547Y-74550490D01*
X105961427Y-74510262D01*
X105992112Y-74436182D01*
X105992111Y-74436182D01*
X105992113Y-74436180D01*
X106001550Y-74388735D01*
X106005500Y-74348636D01*
X106005500Y-70323999D01*
X105998498Y-70270813D01*
X105998498Y-70270812D01*
X105981885Y-70208812D01*
X105966616Y-70171952D01*
X105957775Y-70112347D01*
X105978075Y-70055610D01*
X106022724Y-70015142D01*
X106081178Y-70000500D01*
X109918822Y-70000500D01*
X109977276Y-70015142D01*
G37*
%TD.AperFunction*%
%TA.AperFunction,Conductor*%
G36*
X103385794Y-80003562D02*
G01*
X103399696Y-80010646D01*
X103493481Y-80025500D01*
X103936666Y-80025499D01*
X103984119Y-80034938D01*
X104024347Y-80061818D01*
X104375066Y-80412537D01*
X104405473Y-80462387D01*
X104409694Y-80520627D01*
X104386792Y-80574341D01*
X104346846Y-80607471D01*
X104260802Y-80693515D01*
X104209426Y-80798609D01*
X104199500Y-80866737D01*
X104199500Y-81233263D01*
X104209426Y-81301390D01*
X104209426Y-81301391D01*
X104209427Y-81301393D01*
X104216020Y-81314879D01*
X104260802Y-81406484D01*
X104343515Y-81489197D01*
X104343516Y-81489197D01*
X104343517Y-81489198D01*
X104448607Y-81540573D01*
X104475860Y-81544543D01*
X104516737Y-81550500D01*
X104516740Y-81550500D01*
X105608260Y-81550500D01*
X105608263Y-81550500D01*
X105649139Y-81544543D01*
X105676393Y-81540573D01*
X105721039Y-81518746D01*
X105781904Y-81506312D01*
X105841162Y-81524959D01*
X105883939Y-81570006D01*
X105899500Y-81630147D01*
X105899500Y-82128128D01*
X105884573Y-82187113D01*
X105843384Y-82231896D01*
X105785852Y-82251694D01*
X105755817Y-82254210D01*
X105736836Y-82255801D01*
X105677409Y-82268299D01*
X105622182Y-82287277D01*
X105621523Y-82285359D01*
X105579855Y-82295000D01*
X104545144Y-82295000D01*
X104490685Y-82282401D01*
X104423697Y-82249653D01*
X104369716Y-82232001D01*
X104369713Y-82232000D01*
X104369712Y-82232000D01*
X104302885Y-82220018D01*
X104298478Y-82219847D01*
X104246121Y-82217815D01*
X104190929Y-82231238D01*
X104127810Y-82256243D01*
X104078398Y-82284263D01*
X104012154Y-82335094D01*
X103984120Y-82351279D01*
X103918196Y-82378585D01*
X103886930Y-82386963D01*
X103816185Y-82396277D01*
X103783813Y-82396277D01*
X103713068Y-82386963D01*
X103681802Y-82378586D01*
X103671472Y-82374307D01*
X103615874Y-82351277D01*
X103587845Y-82335094D01*
X103531236Y-82291656D01*
X103519512Y-82279941D01*
X103518803Y-82280651D01*
X103518795Y-82280643D01*
X103508732Y-82269169D01*
X103508402Y-82268839D01*
X103508163Y-82268528D01*
X103508167Y-82268524D01*
X103508100Y-82268448D01*
X103460744Y-82206732D01*
X103449762Y-82189700D01*
X103436404Y-82164710D01*
X103409533Y-82124497D01*
X103409531Y-82124494D01*
X103409528Y-82124490D01*
X103383973Y-82093353D01*
X103241819Y-81951199D01*
X103214939Y-81910971D01*
X103205500Y-81863518D01*
X103205500Y-80114048D01*
X103221310Y-80053459D01*
X103264710Y-80008321D01*
X103324632Y-79990144D01*
X103385794Y-80003562D01*
G37*
%TD.AperFunction*%
%TA.AperFunction,Conductor*%
G36*
X103977276Y-70015142D02*
G01*
X104021925Y-70055610D01*
X104042225Y-70112347D01*
X104033383Y-70171954D01*
X104018114Y-70208814D01*
X104001501Y-70270813D01*
X103994500Y-70323999D01*
X103994500Y-73463518D01*
X103985061Y-73510971D01*
X103958181Y-73551199D01*
X101617181Y-75892197D01*
X101567818Y-75922447D01*
X101510102Y-75926989D01*
X101456615Y-75904834D01*
X101419015Y-75860811D01*
X101405500Y-75804516D01*
X101405500Y-75336482D01*
X101414939Y-75289029D01*
X101441819Y-75248801D01*
X101908987Y-74781634D01*
X101908987Y-74781633D01*
X101908991Y-74781630D01*
X101934547Y-74750490D01*
X101961427Y-74710262D01*
X101992112Y-74636182D01*
X101992111Y-74636182D01*
X101992113Y-74636180D01*
X102001550Y-74588735D01*
X102005318Y-74550490D01*
X102005500Y-74548638D01*
X102005500Y-70324000D01*
X101998498Y-70270812D01*
X101981885Y-70208812D01*
X101966616Y-70171952D01*
X101957775Y-70112347D01*
X101978075Y-70055610D01*
X102022724Y-70015142D01*
X102081178Y-70000500D01*
X103918822Y-70000500D01*
X103977276Y-70015142D01*
G37*
%TD.AperFunction*%
%TD*%
M02*
