%TF.GenerationSoftware,KiCad,Pcbnew,7.0.1*%
%TF.CreationDate,2024-02-21T00:14:55-08:00*%
%TF.ProjectId,G305_lipo_PMIC,47333035-5f6c-4697-906f-5f504d49432e,rev?*%
%TF.SameCoordinates,Original*%
%TF.FileFunction,Drillmap*%
%TF.FilePolarity,Positive*%
%FSLAX45Y45*%
G04 Gerber Fmt 4.5, Leading zero omitted, Abs format (unit mm)*
G04 Created by KiCad (PCBNEW 7.0.1) date 2024-02-21 00:14:55*
%MOMM*%
%LPD*%
G01*
G04 APERTURE LIST*
%ADD10C,0.100000*%
%ADD11C,0.200000*%
%ADD12C,0.040000*%
G04 APERTURE END LIST*
D10*
X11200000Y-7000000D02*
X10000000Y-7000000D01*
X11200000Y-10000000D02*
X11200000Y-7000000D01*
X10000000Y-7000000D02*
X10000000Y-10000000D01*
X10000000Y-10000000D02*
X11200000Y-10000000D01*
D11*
D12*
X10080000Y-9880000D02*
X10120000Y-9920000D01*
X10120000Y-9880000D02*
X10080000Y-9920000D01*
X10160000Y-9040000D02*
X10200000Y-9080000D01*
X10200000Y-9040000D02*
X10160000Y-9080000D01*
X10260000Y-7380000D02*
X10300000Y-7420000D01*
X10300000Y-7380000D02*
X10260000Y-7420000D01*
X10320000Y-8760000D02*
X10360000Y-8800000D01*
X10360000Y-8760000D02*
X10320000Y-8800000D01*
X10360000Y-8080000D02*
X10400000Y-8120000D01*
X10400000Y-8080000D02*
X10360000Y-8120000D01*
X10360000Y-8180000D02*
X10400000Y-8220000D01*
X10400000Y-8180000D02*
X10360000Y-8220000D01*
X10380000Y-8580000D02*
X10420000Y-8620000D01*
X10420000Y-8580000D02*
X10380000Y-8620000D01*
X10480000Y-7680000D02*
X10520000Y-7720000D01*
X10520000Y-7680000D02*
X10480000Y-7720000D01*
X10480000Y-7930000D02*
X10520000Y-7970000D01*
X10520000Y-7930000D02*
X10480000Y-7970000D01*
X10547450Y-8780000D02*
X10587450Y-8820000D01*
X10587450Y-8780000D02*
X10547450Y-8820000D01*
X10680000Y-7380000D02*
X10720000Y-7420000D01*
X10720000Y-7380000D02*
X10680000Y-7420000D01*
X10705000Y-7980000D02*
X10745000Y-8020000D01*
X10745000Y-7980000D02*
X10705000Y-8020000D01*
X10760000Y-8920000D02*
X10800000Y-8960000D01*
X10800000Y-8920000D02*
X10760000Y-8960000D01*
X10780000Y-8180000D02*
X10820000Y-8220000D01*
X10820000Y-8180000D02*
X10780000Y-8220000D01*
X10840000Y-7640000D02*
X10880000Y-7680000D01*
X10880000Y-7640000D02*
X10840000Y-7680000D01*
X10880000Y-7380000D02*
X10920000Y-7420000D01*
X10920000Y-7380000D02*
X10880000Y-7420000D01*
X10960000Y-7960000D02*
X11000000Y-8000000D01*
X11000000Y-7960000D02*
X10960000Y-8000000D01*
X10960000Y-9300000D02*
X11000000Y-9340000D01*
X11000000Y-9300000D02*
X10960000Y-9340000D01*
X10980000Y-9680000D02*
X11020000Y-9720000D01*
X11020000Y-9680000D02*
X10980000Y-9720000D01*
X11080000Y-8480000D02*
X11120000Y-8520000D01*
X11120000Y-8480000D02*
X11080000Y-8520000D01*
X11080000Y-8880000D02*
X11120000Y-8920000D01*
X11120000Y-8880000D02*
X11080000Y-8920000D01*
X11080000Y-9480000D02*
X11120000Y-9520000D01*
X11120000Y-9480000D02*
X11080000Y-9520000D01*
D11*
X10242619Y-10317524D02*
X10242619Y-10117524D01*
X10242619Y-10117524D02*
X10290238Y-10117524D01*
X10290238Y-10117524D02*
X10318810Y-10127048D01*
X10318810Y-10127048D02*
X10337857Y-10146095D01*
X10337857Y-10146095D02*
X10347381Y-10165143D01*
X10347381Y-10165143D02*
X10356905Y-10203238D01*
X10356905Y-10203238D02*
X10356905Y-10231810D01*
X10356905Y-10231810D02*
X10347381Y-10269905D01*
X10347381Y-10269905D02*
X10337857Y-10288952D01*
X10337857Y-10288952D02*
X10318810Y-10308000D01*
X10318810Y-10308000D02*
X10290238Y-10317524D01*
X10290238Y-10317524D02*
X10242619Y-10317524D01*
X10442619Y-10317524D02*
X10442619Y-10184190D01*
X10442619Y-10222286D02*
X10452143Y-10203238D01*
X10452143Y-10203238D02*
X10461667Y-10193714D01*
X10461667Y-10193714D02*
X10480714Y-10184190D01*
X10480714Y-10184190D02*
X10499762Y-10184190D01*
X10566429Y-10317524D02*
X10566429Y-10184190D01*
X10566429Y-10117524D02*
X10556905Y-10127048D01*
X10556905Y-10127048D02*
X10566429Y-10136571D01*
X10566429Y-10136571D02*
X10575952Y-10127048D01*
X10575952Y-10127048D02*
X10566429Y-10117524D01*
X10566429Y-10117524D02*
X10566429Y-10136571D01*
X10690238Y-10317524D02*
X10671190Y-10308000D01*
X10671190Y-10308000D02*
X10661667Y-10288952D01*
X10661667Y-10288952D02*
X10661667Y-10117524D01*
X10795000Y-10317524D02*
X10775952Y-10308000D01*
X10775952Y-10308000D02*
X10766429Y-10288952D01*
X10766429Y-10288952D02*
X10766429Y-10117524D01*
X11023571Y-10317524D02*
X11023571Y-10117524D01*
X11023571Y-10117524D02*
X11090238Y-10260381D01*
X11090238Y-10260381D02*
X11156905Y-10117524D01*
X11156905Y-10117524D02*
X11156905Y-10317524D01*
X11337857Y-10317524D02*
X11337857Y-10212762D01*
X11337857Y-10212762D02*
X11328333Y-10193714D01*
X11328333Y-10193714D02*
X11309286Y-10184190D01*
X11309286Y-10184190D02*
X11271190Y-10184190D01*
X11271190Y-10184190D02*
X11252143Y-10193714D01*
X11337857Y-10308000D02*
X11318809Y-10317524D01*
X11318809Y-10317524D02*
X11271190Y-10317524D01*
X11271190Y-10317524D02*
X11252143Y-10308000D01*
X11252143Y-10308000D02*
X11242619Y-10288952D01*
X11242619Y-10288952D02*
X11242619Y-10269905D01*
X11242619Y-10269905D02*
X11252143Y-10250857D01*
X11252143Y-10250857D02*
X11271190Y-10241333D01*
X11271190Y-10241333D02*
X11318809Y-10241333D01*
X11318809Y-10241333D02*
X11337857Y-10231810D01*
X11433095Y-10184190D02*
X11433095Y-10384190D01*
X11433095Y-10193714D02*
X11452143Y-10184190D01*
X11452143Y-10184190D02*
X11490238Y-10184190D01*
X11490238Y-10184190D02*
X11509286Y-10193714D01*
X11509286Y-10193714D02*
X11518809Y-10203238D01*
X11518809Y-10203238D02*
X11528333Y-10222286D01*
X11528333Y-10222286D02*
X11528333Y-10279429D01*
X11528333Y-10279429D02*
X11518809Y-10298476D01*
X11518809Y-10298476D02*
X11509286Y-10308000D01*
X11509286Y-10308000D02*
X11490238Y-10317524D01*
X11490238Y-10317524D02*
X11452143Y-10317524D01*
X11452143Y-10317524D02*
X11433095Y-10308000D01*
X11614048Y-10298476D02*
X11623571Y-10308000D01*
X11623571Y-10308000D02*
X11614048Y-10317524D01*
X11614048Y-10317524D02*
X11604524Y-10308000D01*
X11604524Y-10308000D02*
X11614048Y-10298476D01*
X11614048Y-10298476D02*
X11614048Y-10317524D01*
X11614048Y-10193714D02*
X11623571Y-10203238D01*
X11623571Y-10203238D02*
X11614048Y-10212762D01*
X11614048Y-10212762D02*
X11604524Y-10203238D01*
X11604524Y-10203238D02*
X11614048Y-10193714D01*
X11614048Y-10193714D02*
X11614048Y-10212762D01*
D12*
X9955000Y-10625000D02*
X9995000Y-10665000D01*
X9995000Y-10625000D02*
X9955000Y-10665000D01*
D11*
X10280714Y-10537524D02*
X10299762Y-10537524D01*
X10299762Y-10537524D02*
X10318810Y-10547048D01*
X10318810Y-10547048D02*
X10328333Y-10556571D01*
X10328333Y-10556571D02*
X10337857Y-10575619D01*
X10337857Y-10575619D02*
X10347381Y-10613714D01*
X10347381Y-10613714D02*
X10347381Y-10661333D01*
X10347381Y-10661333D02*
X10337857Y-10699429D01*
X10337857Y-10699429D02*
X10328333Y-10718476D01*
X10328333Y-10718476D02*
X10318810Y-10728000D01*
X10318810Y-10728000D02*
X10299762Y-10737524D01*
X10299762Y-10737524D02*
X10280714Y-10737524D01*
X10280714Y-10737524D02*
X10261667Y-10728000D01*
X10261667Y-10728000D02*
X10252143Y-10718476D01*
X10252143Y-10718476D02*
X10242619Y-10699429D01*
X10242619Y-10699429D02*
X10233095Y-10661333D01*
X10233095Y-10661333D02*
X10233095Y-10613714D01*
X10233095Y-10613714D02*
X10242619Y-10575619D01*
X10242619Y-10575619D02*
X10252143Y-10556571D01*
X10252143Y-10556571D02*
X10261667Y-10547048D01*
X10261667Y-10547048D02*
X10280714Y-10537524D01*
X10433095Y-10718476D02*
X10442619Y-10728000D01*
X10442619Y-10728000D02*
X10433095Y-10737524D01*
X10433095Y-10737524D02*
X10423571Y-10728000D01*
X10423571Y-10728000D02*
X10433095Y-10718476D01*
X10433095Y-10718476D02*
X10433095Y-10737524D01*
X10614048Y-10604190D02*
X10614048Y-10737524D01*
X10566429Y-10528000D02*
X10518810Y-10670857D01*
X10518810Y-10670857D02*
X10642619Y-10670857D01*
X10756905Y-10537524D02*
X10775952Y-10537524D01*
X10775952Y-10537524D02*
X10795000Y-10547048D01*
X10795000Y-10547048D02*
X10804524Y-10556571D01*
X10804524Y-10556571D02*
X10814048Y-10575619D01*
X10814048Y-10575619D02*
X10823571Y-10613714D01*
X10823571Y-10613714D02*
X10823571Y-10661333D01*
X10823571Y-10661333D02*
X10814048Y-10699429D01*
X10814048Y-10699429D02*
X10804524Y-10718476D01*
X10804524Y-10718476D02*
X10795000Y-10728000D01*
X10795000Y-10728000D02*
X10775952Y-10737524D01*
X10775952Y-10737524D02*
X10756905Y-10737524D01*
X10756905Y-10737524D02*
X10737857Y-10728000D01*
X10737857Y-10728000D02*
X10728333Y-10718476D01*
X10728333Y-10718476D02*
X10718810Y-10699429D01*
X10718810Y-10699429D02*
X10709286Y-10661333D01*
X10709286Y-10661333D02*
X10709286Y-10613714D01*
X10709286Y-10613714D02*
X10718810Y-10575619D01*
X10718810Y-10575619D02*
X10728333Y-10556571D01*
X10728333Y-10556571D02*
X10737857Y-10547048D01*
X10737857Y-10547048D02*
X10756905Y-10537524D01*
X10947381Y-10537524D02*
X10966429Y-10537524D01*
X10966429Y-10537524D02*
X10985476Y-10547048D01*
X10985476Y-10547048D02*
X10995000Y-10556571D01*
X10995000Y-10556571D02*
X11004524Y-10575619D01*
X11004524Y-10575619D02*
X11014048Y-10613714D01*
X11014048Y-10613714D02*
X11014048Y-10661333D01*
X11014048Y-10661333D02*
X11004524Y-10699429D01*
X11004524Y-10699429D02*
X10995000Y-10718476D01*
X10995000Y-10718476D02*
X10985476Y-10728000D01*
X10985476Y-10728000D02*
X10966429Y-10737524D01*
X10966429Y-10737524D02*
X10947381Y-10737524D01*
X10947381Y-10737524D02*
X10928333Y-10728000D01*
X10928333Y-10728000D02*
X10918810Y-10718476D01*
X10918810Y-10718476D02*
X10909286Y-10699429D01*
X10909286Y-10699429D02*
X10899762Y-10661333D01*
X10899762Y-10661333D02*
X10899762Y-10613714D01*
X10899762Y-10613714D02*
X10909286Y-10575619D01*
X10909286Y-10575619D02*
X10918810Y-10556571D01*
X10918810Y-10556571D02*
X10928333Y-10547048D01*
X10928333Y-10547048D02*
X10947381Y-10537524D01*
X11099762Y-10737524D02*
X11099762Y-10604190D01*
X11099762Y-10623238D02*
X11109286Y-10613714D01*
X11109286Y-10613714D02*
X11128333Y-10604190D01*
X11128333Y-10604190D02*
X11156905Y-10604190D01*
X11156905Y-10604190D02*
X11175952Y-10613714D01*
X11175952Y-10613714D02*
X11185476Y-10632762D01*
X11185476Y-10632762D02*
X11185476Y-10737524D01*
X11185476Y-10632762D02*
X11195000Y-10613714D01*
X11195000Y-10613714D02*
X11214048Y-10604190D01*
X11214048Y-10604190D02*
X11242619Y-10604190D01*
X11242619Y-10604190D02*
X11261667Y-10613714D01*
X11261667Y-10613714D02*
X11271190Y-10632762D01*
X11271190Y-10632762D02*
X11271190Y-10737524D01*
X11366429Y-10737524D02*
X11366429Y-10604190D01*
X11366429Y-10623238D02*
X11375952Y-10613714D01*
X11375952Y-10613714D02*
X11395000Y-10604190D01*
X11395000Y-10604190D02*
X11423571Y-10604190D01*
X11423571Y-10604190D02*
X11442619Y-10613714D01*
X11442619Y-10613714D02*
X11452143Y-10632762D01*
X11452143Y-10632762D02*
X11452143Y-10737524D01*
X11452143Y-10632762D02*
X11461667Y-10613714D01*
X11461667Y-10613714D02*
X11480714Y-10604190D01*
X11480714Y-10604190D02*
X11509286Y-10604190D01*
X11509286Y-10604190D02*
X11528333Y-10613714D01*
X11528333Y-10613714D02*
X11537857Y-10632762D01*
X11537857Y-10632762D02*
X11537857Y-10737524D01*
X11928333Y-10528000D02*
X11756905Y-10785143D01*
X12185476Y-10537524D02*
X12204524Y-10537524D01*
X12204524Y-10537524D02*
X12223572Y-10547048D01*
X12223572Y-10547048D02*
X12233095Y-10556571D01*
X12233095Y-10556571D02*
X12242619Y-10575619D01*
X12242619Y-10575619D02*
X12252143Y-10613714D01*
X12252143Y-10613714D02*
X12252143Y-10661333D01*
X12252143Y-10661333D02*
X12242619Y-10699429D01*
X12242619Y-10699429D02*
X12233095Y-10718476D01*
X12233095Y-10718476D02*
X12223572Y-10728000D01*
X12223572Y-10728000D02*
X12204524Y-10737524D01*
X12204524Y-10737524D02*
X12185476Y-10737524D01*
X12185476Y-10737524D02*
X12166429Y-10728000D01*
X12166429Y-10728000D02*
X12156905Y-10718476D01*
X12156905Y-10718476D02*
X12147381Y-10699429D01*
X12147381Y-10699429D02*
X12137857Y-10661333D01*
X12137857Y-10661333D02*
X12137857Y-10613714D01*
X12137857Y-10613714D02*
X12147381Y-10575619D01*
X12147381Y-10575619D02*
X12156905Y-10556571D01*
X12156905Y-10556571D02*
X12166429Y-10547048D01*
X12166429Y-10547048D02*
X12185476Y-10537524D01*
X12337857Y-10718476D02*
X12347381Y-10728000D01*
X12347381Y-10728000D02*
X12337857Y-10737524D01*
X12337857Y-10737524D02*
X12328333Y-10728000D01*
X12328333Y-10728000D02*
X12337857Y-10718476D01*
X12337857Y-10718476D02*
X12337857Y-10737524D01*
X12471191Y-10537524D02*
X12490238Y-10537524D01*
X12490238Y-10537524D02*
X12509286Y-10547048D01*
X12509286Y-10547048D02*
X12518810Y-10556571D01*
X12518810Y-10556571D02*
X12528333Y-10575619D01*
X12528333Y-10575619D02*
X12537857Y-10613714D01*
X12537857Y-10613714D02*
X12537857Y-10661333D01*
X12537857Y-10661333D02*
X12528333Y-10699429D01*
X12528333Y-10699429D02*
X12518810Y-10718476D01*
X12518810Y-10718476D02*
X12509286Y-10728000D01*
X12509286Y-10728000D02*
X12490238Y-10737524D01*
X12490238Y-10737524D02*
X12471191Y-10737524D01*
X12471191Y-10737524D02*
X12452143Y-10728000D01*
X12452143Y-10728000D02*
X12442619Y-10718476D01*
X12442619Y-10718476D02*
X12433095Y-10699429D01*
X12433095Y-10699429D02*
X12423572Y-10661333D01*
X12423572Y-10661333D02*
X12423572Y-10613714D01*
X12423572Y-10613714D02*
X12433095Y-10575619D01*
X12433095Y-10575619D02*
X12442619Y-10556571D01*
X12442619Y-10556571D02*
X12452143Y-10547048D01*
X12452143Y-10547048D02*
X12471191Y-10537524D01*
X12728333Y-10737524D02*
X12614048Y-10737524D01*
X12671191Y-10737524D02*
X12671191Y-10537524D01*
X12671191Y-10537524D02*
X12652143Y-10566095D01*
X12652143Y-10566095D02*
X12633095Y-10585143D01*
X12633095Y-10585143D02*
X12614048Y-10594667D01*
X12909286Y-10537524D02*
X12814048Y-10537524D01*
X12814048Y-10537524D02*
X12804524Y-10632762D01*
X12804524Y-10632762D02*
X12814048Y-10623238D01*
X12814048Y-10623238D02*
X12833095Y-10613714D01*
X12833095Y-10613714D02*
X12880714Y-10613714D01*
X12880714Y-10613714D02*
X12899762Y-10623238D01*
X12899762Y-10623238D02*
X12909286Y-10632762D01*
X12909286Y-10632762D02*
X12918810Y-10651810D01*
X12918810Y-10651810D02*
X12918810Y-10699429D01*
X12918810Y-10699429D02*
X12909286Y-10718476D01*
X12909286Y-10718476D02*
X12899762Y-10728000D01*
X12899762Y-10728000D02*
X12880714Y-10737524D01*
X12880714Y-10737524D02*
X12833095Y-10737524D01*
X12833095Y-10737524D02*
X12814048Y-10728000D01*
X12814048Y-10728000D02*
X12804524Y-10718476D01*
X12985476Y-10537524D02*
X13118810Y-10537524D01*
X13118810Y-10537524D02*
X13033095Y-10737524D01*
X13185476Y-10537524D02*
X13185476Y-10575619D01*
X13261667Y-10537524D02*
X13261667Y-10575619D01*
X13556905Y-10813714D02*
X13547381Y-10804190D01*
X13547381Y-10804190D02*
X13528334Y-10775619D01*
X13528334Y-10775619D02*
X13518810Y-10756571D01*
X13518810Y-10756571D02*
X13509286Y-10728000D01*
X13509286Y-10728000D02*
X13499762Y-10680381D01*
X13499762Y-10680381D02*
X13499762Y-10642286D01*
X13499762Y-10642286D02*
X13509286Y-10594667D01*
X13509286Y-10594667D02*
X13518810Y-10566095D01*
X13518810Y-10566095D02*
X13528334Y-10547048D01*
X13528334Y-10547048D02*
X13547381Y-10518476D01*
X13547381Y-10518476D02*
X13556905Y-10508952D01*
X13623572Y-10556571D02*
X13633095Y-10547048D01*
X13633095Y-10547048D02*
X13652143Y-10537524D01*
X13652143Y-10537524D02*
X13699762Y-10537524D01*
X13699762Y-10537524D02*
X13718810Y-10547048D01*
X13718810Y-10547048D02*
X13728334Y-10556571D01*
X13728334Y-10556571D02*
X13737857Y-10575619D01*
X13737857Y-10575619D02*
X13737857Y-10594667D01*
X13737857Y-10594667D02*
X13728334Y-10623238D01*
X13728334Y-10623238D02*
X13614048Y-10737524D01*
X13614048Y-10737524D02*
X13737857Y-10737524D01*
X13814048Y-10556571D02*
X13823572Y-10547048D01*
X13823572Y-10547048D02*
X13842619Y-10537524D01*
X13842619Y-10537524D02*
X13890238Y-10537524D01*
X13890238Y-10537524D02*
X13909286Y-10547048D01*
X13909286Y-10547048D02*
X13918810Y-10556571D01*
X13918810Y-10556571D02*
X13928334Y-10575619D01*
X13928334Y-10575619D02*
X13928334Y-10594667D01*
X13928334Y-10594667D02*
X13918810Y-10623238D01*
X13918810Y-10623238D02*
X13804524Y-10737524D01*
X13804524Y-10737524D02*
X13928334Y-10737524D01*
X14166429Y-10737524D02*
X14166429Y-10537524D01*
X14252143Y-10737524D02*
X14252143Y-10632762D01*
X14252143Y-10632762D02*
X14242619Y-10613714D01*
X14242619Y-10613714D02*
X14223572Y-10604190D01*
X14223572Y-10604190D02*
X14195000Y-10604190D01*
X14195000Y-10604190D02*
X14175953Y-10613714D01*
X14175953Y-10613714D02*
X14166429Y-10623238D01*
X14375953Y-10737524D02*
X14356905Y-10728000D01*
X14356905Y-10728000D02*
X14347381Y-10718476D01*
X14347381Y-10718476D02*
X14337857Y-10699429D01*
X14337857Y-10699429D02*
X14337857Y-10642286D01*
X14337857Y-10642286D02*
X14347381Y-10623238D01*
X14347381Y-10623238D02*
X14356905Y-10613714D01*
X14356905Y-10613714D02*
X14375953Y-10604190D01*
X14375953Y-10604190D02*
X14404524Y-10604190D01*
X14404524Y-10604190D02*
X14423572Y-10613714D01*
X14423572Y-10613714D02*
X14433096Y-10623238D01*
X14433096Y-10623238D02*
X14442619Y-10642286D01*
X14442619Y-10642286D02*
X14442619Y-10699429D01*
X14442619Y-10699429D02*
X14433096Y-10718476D01*
X14433096Y-10718476D02*
X14423572Y-10728000D01*
X14423572Y-10728000D02*
X14404524Y-10737524D01*
X14404524Y-10737524D02*
X14375953Y-10737524D01*
X14556905Y-10737524D02*
X14537857Y-10728000D01*
X14537857Y-10728000D02*
X14528334Y-10708952D01*
X14528334Y-10708952D02*
X14528334Y-10537524D01*
X14709286Y-10728000D02*
X14690238Y-10737524D01*
X14690238Y-10737524D02*
X14652143Y-10737524D01*
X14652143Y-10737524D02*
X14633096Y-10728000D01*
X14633096Y-10728000D02*
X14623572Y-10708952D01*
X14623572Y-10708952D02*
X14623572Y-10632762D01*
X14623572Y-10632762D02*
X14633096Y-10613714D01*
X14633096Y-10613714D02*
X14652143Y-10604190D01*
X14652143Y-10604190D02*
X14690238Y-10604190D01*
X14690238Y-10604190D02*
X14709286Y-10613714D01*
X14709286Y-10613714D02*
X14718810Y-10632762D01*
X14718810Y-10632762D02*
X14718810Y-10651810D01*
X14718810Y-10651810D02*
X14623572Y-10670857D01*
X14795000Y-10728000D02*
X14814048Y-10737524D01*
X14814048Y-10737524D02*
X14852143Y-10737524D01*
X14852143Y-10737524D02*
X14871191Y-10728000D01*
X14871191Y-10728000D02*
X14880715Y-10708952D01*
X14880715Y-10708952D02*
X14880715Y-10699429D01*
X14880715Y-10699429D02*
X14871191Y-10680381D01*
X14871191Y-10680381D02*
X14852143Y-10670857D01*
X14852143Y-10670857D02*
X14823572Y-10670857D01*
X14823572Y-10670857D02*
X14804524Y-10661333D01*
X14804524Y-10661333D02*
X14795000Y-10642286D01*
X14795000Y-10642286D02*
X14795000Y-10632762D01*
X14795000Y-10632762D02*
X14804524Y-10613714D01*
X14804524Y-10613714D02*
X14823572Y-10604190D01*
X14823572Y-10604190D02*
X14852143Y-10604190D01*
X14852143Y-10604190D02*
X14871191Y-10613714D01*
X14947381Y-10813714D02*
X14956905Y-10804190D01*
X14956905Y-10804190D02*
X14975953Y-10775619D01*
X14975953Y-10775619D02*
X14985477Y-10756571D01*
X14985477Y-10756571D02*
X14995000Y-10728000D01*
X14995000Y-10728000D02*
X15004524Y-10680381D01*
X15004524Y-10680381D02*
X15004524Y-10642286D01*
X15004524Y-10642286D02*
X14995000Y-10594667D01*
X14995000Y-10594667D02*
X14985477Y-10566095D01*
X14985477Y-10566095D02*
X14975953Y-10547048D01*
X14975953Y-10547048D02*
X14956905Y-10518476D01*
X14956905Y-10518476D02*
X14947381Y-10508952D01*
M02*
